<?xml version="1.0" standalone="no"?>
<!DOCTYPE svg PUBLIC "-//W3C//DTD SVG 20010904//EN"
 "http://www.w3.org/TR/2001/REC-SVG-20010904/DTD/svg10.dtd">
<svg version="1.0" xmlns="http://www.w3.org/2000/svg"
 width="1920.000000pt" height="1080.000000pt" viewBox="0 0 1920.000000 1080.000000"
 preserveAspectRatio="xMidYMid meet">

<g transform="translate(0.000000,1080.000000) scale(0.100000,-0.100000)"
fill="#000000" stroke="none">
<path d="M0 8965 l0 -215 4860 0 4860 0 0 -3160 0 -3160 -4860 0 -4860 0 0
-235 0 -235 5025 0 5025 0 0 3430 c0 2501 -3 3443 -11 3482 -31 147 -134 256
-274 293 -53 13 -561 15 -4912 15 l-4853 0 0 -215z"/>
<path d="M263 8606 c-15 -13 -34 -41 -42 -62 -8 -22 -19 -42 -25 -46 -8 -6 -8
-10 0 -15 6 -5 15 -26 20 -47 14 -58 36 -60 28 -3 -6 45 -6 46 34 66 67 34 99
90 70 119 -19 19 -54 14 -85 -12z m67 -17 c0 -16 -56 -69 -74 -69 -9 0 -16 2
-16 5 0 14 31 64 42 68 23 9 48 7 48 -4z"/>
<path d="M181 8564 c0 -11 3 -14 6 -6 3 7 2 16 -1 19 -3 4 -6 -2 -5 -13z"/>
<path d="M9184 8502 c-57 -8 -84 -86 -49 -138 12 -18 14 -29 7 -32 -23 -7 -62
-44 -62 -59 0 -11 10 -6 34 15 19 17 48 33 65 37 41 9 96 -10 121 -42 11 -14
23 -23 26 -20 10 10 -23 55 -46 62 -24 7 -24 13 -5 39 21 28 19 79 -5 108 -20
26 -48 36 -86 30z m69 -40 c25 -22 22 -77 -5 -96 -49 -35 -108 -8 -108 48 0
39 9 53 40 64 28 10 47 6 73 -16z"/>
<path d="M1201 8444 c0 -11 3 -14 6 -6 3 7 2 16 -1 19 -3 4 -6 -2 -5 -13z"/>
<path d="M581 8424 c0 -11 3 -14 6 -6 3 7 2 16 -1 19 -3 4 -6 -2 -5 -13z"/>
<path d="M4360 8380 c0 -27 5 -50 10 -50 6 0 10 14 10 30 0 17 5 30 10 30 6 0
10 -13 10 -30 0 -16 5 -30 10 -30 6 0 10 16 10 35 0 28 -4 35 -20 35 -11 0
-20 7 -20 15 0 8 -4 15 -10 15 -5 0 -10 -22 -10 -50z"/>
<path d="M4440 8381 c0 -45 2 -48 25 -48 28 0 48 27 39 51 -3 9 -15 16 -25 16
-10 0 -19 7 -19 15 0 8 -4 15 -10 15 -5 0 -10 -22 -10 -49z m42 -23 c-15 -15
-26 -4 -18 18 5 13 9 15 18 6 9 -9 9 -15 0 -24z"/>
<path d="M4770 8416 c0 -7 -9 -16 -21 -19 -16 -4 -20 -12 -17 -34 2 -23 8 -28
31 -29 26 -1 27 1 27 47 0 27 -4 49 -10 49 -5 0 -10 -6 -10 -14z m0 -46 c0
-11 -4 -20 -10 -20 -5 0 -10 9 -10 20 0 11 5 20 10 20 6 0 10 -9 10 -20z"/>
<path d="M8010 8380 c0 -27 5 -50 10 -50 6 0 10 7 10 17 0 15 1 15 18 0 25
-23 35 -21 22 4 -7 11 -9 27 -6 35 7 17 -6 18 -22 2 -9 -9 -12 -6 -12 15 0 15
-4 27 -10 27 -5 0 -10 -22 -10 -50z"/>
<path d="M1163 8413 c9 -2 23 -2 30 0 6 3 -1 5 -18 5 -16 0 -22 -2 -12 -5z"/>
<path d="M4130 8376 c0 -38 3 -46 18 -46 32 0 54 24 50 55 -3 26 -8 30 -35 33
-33 3 -33 3 -33 -42z m45 4 c0 -13 -6 -25 -12 -27 -9 -3 -13 6 -13 27 0 21 4
30 13 28 6 -3 12 -15 12 -28z"/>
<path d="M5163 8413 c12 -3 17 -15 17 -44 0 -21 5 -39 10 -39 6 0 10 18 10 39
0 22 5 42 13 44 6 3 -6 5 -28 5 -22 0 -32 -2 -22 -5z"/>
<path d="M5395 8397 c-9 -33 2 -67 21 -67 16 0 19 16 4 25 -7 4 -7 12 0 25 7
13 6 21 -5 30 -12 10 -15 7 -20 -13z"/>
<path d="M5710 8375 c0 -25 5 -45 10 -45 6 0 10 10 10 23 l1 22 20 -24 c24
-29 34 -23 18 12 -9 21 -9 30 1 42 17 20 1 19 -22 -2 -17 -15 -18 -15 -18 0 0
10 -4 17 -10 17 -5 0 -10 -20 -10 -45z"/>
<path d="M6390 8375 c0 -41 2 -45 25 -45 14 0 25 5 25 10 0 6 -7 10 -15 10
-10 0 -15 11 -15 35 0 19 -4 35 -10 35 -5 0 -10 -20 -10 -45z"/>
<path d="M6960 8375 c0 -25 5 -45 10 -45 6 0 10 10 10 23 l1 22 18 -22 c27
-32 34 -29 17 6 -14 26 -14 30 0 41 8 7 12 15 9 18 -3 3 -14 -3 -25 -13 -18
-16 -20 -16 -20 -2 0 10 -4 17 -10 17 -5 0 -10 -20 -10 -45z"/>
<path d="M7640 8375 c0 -45 20 -66 21 -22 l0 22 16 -22 c22 -32 39 -29 18 3
-16 24 -16 27 1 45 15 17 15 19 1 19 -9 0 -21 -8 -26 -17 -10 -17 -10 -17 -11
0 0 9 -4 17 -10 17 -5 0 -10 -20 -10 -45z"/>
<path d="M7884 8406 c-15 -17 -2 -70 19 -74 9 -2 17 1 17 7 0 6 -4 11 -10 11
-12 0 -13 37 -1 42 5 2 4 8 -3 14 -8 8 -14 8 -22 0z"/>
<path d="M875 8385 c0 -12 3 -21 7 -19 3 2 9 -2 12 -8 3 -7 3 -2 0 12 -9 35
-19 44 -19 15z"/>
<path d="M1200 8375 c0 -14 4 -25 9 -25 4 0 6 11 3 25 -2 14 -6 25 -8 25 -2 0
-4 -11 -4 -25z"/>
<path d="M4235 8391 c19 -8 19 -8 -2 -20 -30 -16 -19 -40 18 -39 27 1 30 4 27
32 -3 26 -7 31 -33 33 -24 2 -26 1 -10 -6z"/>
<path d="M4290 8385 c0 -7 8 -19 18 -24 16 -10 16 -10 0 -11 -10 0 -18 -4 -18
-10 0 -5 9 -10 20 -10 28 0 38 30 14 43 -17 10 -17 11 1 18 17 6 16 8 -7 8
-18 1 -28 -4 -28 -14z"/>
<path d="M4524 8386 c-11 -29 0 -51 26 -51 21 0 25 5 25 30 0 24 -5 31 -23 33
-13 2 -24 -3 -28 -12z m36 -16 c0 -11 -4 -20 -10 -20 -5 0 -10 9 -10 20 0 11
5 20 10 20 6 0 10 -9 10 -20z"/>
<path d="M4615 8391 c19 -8 19 -8 -2 -20 -30 -16 -19 -40 18 -39 27 1 30 4 27
32 -3 26 -7 31 -33 33 -24 2 -26 1 -10 -6z m22 -37 c-3 -3 -12 -4 -19 -1 -8 3
-5 6 6 6 11 1 17 -2 13 -5z"/>
<path d="M4670 8369 c0 -15 5 -31 10 -34 6 -3 10 2 10 11 0 10 7 25 15 34 15
16 14 18 -10 18 -21 0 -25 -5 -25 -29z"/>
<path d="M5233 8384 c-3 -9 -2 -24 4 -33 12 -18 53 -28 53 -12 0 6 -10 11 -22
12 l-23 1 23 6 c13 4 23 10 23 15 -1 4 -1 12 -1 17 0 17 -50 11 -57 -6z"/>
<path d="M5310 8365 c0 -19 5 -35 10 -35 6 0 10 11 10 24 0 27 19 47 21 22 3
-29 4 -34 12 -42 4 -4 7 9 7 29 0 34 -2 37 -30 37 -28 0 -30 -3 -30 -35z"/>
<path d="M5465 8391 c19 -8 19 -8 -3 -20 -30 -16 -23 -36 12 -37 32 -1 40 9
32 42 -5 18 -13 24 -34 23 -23 0 -24 -1 -7 -8z m22 -37 c-3 -3 -12 -4 -19 -1
-8 3 -5 6 6 6 11 1 17 -2 13 -5z"/>
<path d="M5520 8371 c0 -39 18 -50 22 -14 4 34 22 33 26 -2 5 -37 24 -30 20 8
-3 28 -7 32 -35 35 -31 3 -33 1 -33 -27z"/>
<path d="M5608 8393 c-2 -5 -4 -26 -3 -48 0 -33 4 -41 21 -43 24 -3 52 24 38
37 -5 5 -18 11 -29 14 -19 4 -19 5 1 6 13 1 24 9 27 21 4 17 0 20 -23 20 -16
0 -30 -3 -32 -7z m32 -13 c0 -5 -4 -10 -10 -10 -5 0 -10 5 -10 10 0 6 5 10 10
10 6 0 10 -4 10 -10z m3 -57 c-7 -2 -19 -2 -25 0 -7 3 -2 5 12 5 14 0 19 -2
13 -5z"/>
<path d="M5815 8391 c19 -8 19 -8 -3 -15 -32 -11 -25 -41 11 -42 24 -1 27 2
27 32 0 31 -3 34 -27 33 -24 0 -25 -1 -8 -8z"/>
<path d="M5870 8366 c0 -20 5 -36 10 -36 6 0 10 11 10 24 0 14 5 28 10 31 6 4
10 -7 10 -24 0 -37 17 -41 22 -6 2 14 8 26 13 26 6 0 11 -12 13 -26 5 -37 24
-30 20 8 -3 31 -4 32 -55 35 l-53 3 0 -35z"/>
<path d="M5990 8371 c0 -17 5 -33 10 -36 6 -4 10 8 10 29 0 20 -4 36 -10 36
-5 0 -10 -13 -10 -29z"/>
<path d="M6483 8393 c9 -2 17 -13 17 -23 0 -21 -16 -35 -24 -21 -4 5 0 12 6
14 8 3 5 6 -5 6 -13 1 -17 -5 -15 -16 3 -12 12 -17 28 -15 31 3 34 6 26 37 -5
18 -13 25 -29 24 -17 -1 -18 -2 -4 -6z"/>
<path d="M6544 8365 c13 -31 13 -36 -2 -44 -9 -5 -14 -13 -10 -17 12 -11 36
15 48 52 14 40 5 59 -9 23 l-10 -24 -7 23 c-3 12 -10 22 -15 22 -5 0 -3 -16 5
-35z"/>
<path d="M6628 8393 c16 -3 22 -10 20 -24 -2 -11 -7 -19 -13 -18 -5 0 -9 5 -7
10 1 5 -3 9 -9 9 -21 0 -3 -35 19 -36 19 -1 22 4 22 32 0 31 -3 34 -27 33 -25
-2 -25 -2 -5 -6z"/>
<path d="M6691 8361 c1 -35 2 -35 8 -7 9 41 31 46 31 7 0 -17 5 -31 11 -31 6
0 9 14 7 33 -3 27 -7 32 -30 33 -26 1 -28 -2 -27 -35z"/>
<path d="M6785 8392 c20 -7 29 -43 10 -41 -6 1 -9 5 -7 10 1 5 -2 9 -8 9 -5 0
-10 -9 -10 -20 0 -15 6 -19 25 -18 21 2 25 7 25 35 0 30 -3 33 -27 32 -23 -1
-25 -2 -8 -7z"/>
<path d="M6851 8363 c1 -35 2 -36 8 -9 9 42 31 46 31 5 0 -24 3 -30 11 -22 6
6 9 21 7 34 -2 18 -10 25 -30 27 -26 3 -28 1 -27 -35z"/>
<path d="M7063 8394 c19 -6 23 -39 5 -50 -8 -5 -9 -2 -5 9 4 11 1 17 -9 17 -9
0 -14 -7 -12 -17 2 -12 13 -18 31 -18 25 -1 28 2 25 30 -2 24 -8 30 -28 32
-14 1 -18 0 -7 -3z"/>
<path d="M7120 8365 c0 -19 5 -35 10 -35 6 0 10 14 10 30 0 17 5 30 10 30 6 0
10 -13 10 -30 0 -36 17 -40 22 -5 4 36 22 36 29 0 6 -29 7 -29 8 8 l1 37 -50
0 -50 0 0 -35z"/>
<path d="M7248 8365 c2 -19 6 -35 8 -35 2 0 4 16 4 35 0 19 -4 35 -8 35 -4 0
-6 -16 -4 -35z"/>
<path d="M7724 8386 c-11 -29 0 -51 26 -51 21 0 25 5 25 30 0 24 -5 31 -23 33
-13 2 -24 -3 -28 -12z m36 -16 c0 -11 -4 -20 -10 -20 -5 0 -10 9 -10 20 0 11
5 20 10 20 6 0 10 -9 10 -20z"/>
<path d="M7800 8365 c0 -19 5 -35 10 -35 6 0 10 14 10 30 0 17 5 30 10 30 6 0
10 -13 10 -30 0 -16 5 -30 10 -30 6 0 10 16 10 35 0 32 -2 35 -30 35 -28 0
-30 -3 -30 -35z"/>
<path d="M7955 8390 c19 -9 19 -9 -3 -16 -32 -9 -24 -39 11 -40 24 -1 27 2 27
32 0 31 -3 34 -27 33 -25 0 -26 -1 -8 -9z"/>
<path d="M1287 8377 c-3 -8 1 -14 8 -14 7 0 11 6 8 14 -3 7 -6 13 -8 13 -2 0
-5 -6 -8 -13z"/>
<path d="M766 8371 c-4 -5 -2 -12 3 -15 5 -4 12 -2 15 3 4 5 2 12 -3 15 -5 4
-12 2 -15 -3z"/>
<path d="M1510 8376 c0 -2 8 -10 18 -17 15 -13 16 -12 3 4 -13 16 -21 21 -21
13z"/>
<path d="M20 8355 c-16 -19 -4 -52 26 -72 19 -12 39 -14 85 -10 57 5 61 4 71
-19 10 -21 13 -23 21 -9 5 10 4 21 -4 31 -11 13 -7 20 19 45 29 27 41 49 26
49 -3 0 -20 -11 -38 -25 l-33 -25 -44 25 c-49 28 -110 33 -129 10z m90 -21
c45 -18 51 -31 17 -39 -40 -11 -97 21 -82 45 8 14 18 13 65 -6z"/>
<path d="M622 8362 c-8 -6 -2 -9 18 -9 20 0 26 3 18 9 -7 4 -15 8 -18 8 -3 0
-11 -4 -18 -8z"/>
<path d="M1556 8358 c3 -5 10 -6 15 -3 13 9 11 12 -6 12 -8 0 -12 -4 -9 -9z"/>
<path d="M134 8226 c-10 -26 3 -46 28 -42 32 4 32 50 0 54 -13 2 -25 -3 -28
-12z"/>
<path d="M4084 7130 c-33 -10 -72 -47 -126 -119 -18 -24 -42 -49 -53 -55 -101
-55 -146 -137 -125 -230 12 -55 2 -88 -43 -133 l-31 -33 -463 0 c-512 0 -506
1 -540 -63 -16 -29 -18 -71 -21 -414 -2 -320 -1 -387 12 -411 28 -55 48 -159
55 -294 6 -102 12 -143 25 -162 21 -33 26 -33 61 4 16 17 26 30 22 30 -3 0 5
12 18 26 14 15 22 30 19 35 -2 5 7 11 21 15 l25 6 0 547 c0 600 -3 574 60 606
24 12 84 15 344 15 l315 0 -6 -35 c-8 -50 21 -119 64 -152 91 -69 252 -20 353
108 l38 48 13 -31 c44 -106 184 -176 225 -113 17 25 16 55 -2 143 l-6 32 183
0 c101 0 194 -3 206 -6 13 -4 32 -21 43 -39 18 -28 20 -50 20 -174 0 -84 4
-141 10 -141 5 0 6 -8 3 -17 -7 -17 -5 -17 17 -2 25 16 25 18 28 194 3 193 -2
216 -53 235 -14 5 -132 10 -262 10 l-238 1 -1 -23 c-1 -13 -5 -32 -9 -43 -5
-15 -4 -16 3 -6 17 23 29 4 42 -63 16 -85 4 -111 -48 -102 -51 8 -103 53 -135
118 -25 49 -27 59 -16 79 15 28 17 131 5 215 -8 56 -6 64 13 83 33 33 53 28
46 -12 -13 -69 72 -119 109 -65 20 28 21 82 2 97 -12 10 -12 16 0 39 8 15 14
37 14 49 0 25 31 46 54 37 8 -3 17 -23 21 -45 6 -35 4 -41 -24 -65 -37 -31
-43 -83 -12 -111 47 -43 47 -43 71 -11 13 17 18 28 12 24 -6 -4 -8 2 -5 15 5
16 8 18 15 7 14 -21 -3 123 -18 157 -13 27 -24 44 -80 124 -37 52 -195 94
-270 71z m312 -398 c-3 -3 -15 3 -26 13 -27 24 -26 69 3 98 l22 22 3 -64 c2
-35 1 -66 -2 -69z m-96 99 c37 -70 -44 -141 -86 -75 -30 45 -1 88 63 93 7 1
17 -8 23 -18z"/>
<path d="M4360 6790 c0 -13 5 -20 13 -17 6 2 12 10 12 17 0 7 -6 15 -12 18 -8
2 -13 -5 -13 -18z"/>
<path d="M4256 6803 c-12 -12 -6 -33 9 -33 8 0 15 6 15 14 0 17 -14 28 -24 19z"/>
<path d="M5553 7090 c-51 -23 -83 -70 -83 -124 0 -32 7 -46 44 -82 38 -39 49
-44 87 -44 24 0 56 6 70 14 22 11 29 11 44 0 22 -17 59 -18 86 -4 15 8 19 7
19 -3 0 -8 7 -20 15 -27 8 -7 15 -25 15 -40 0 -40 11 -44 31 -10 21 34 44 39
58 12 14 -26 2 -70 -26 -92 -23 -18 -24 -20 -7 -45 21 -32 29 -26 94 73 30 45
54 96 61 129 10 42 17 55 35 59 75 19 95 145 29 188 -39 26 -74 20 -110 -19
l-33 -34 -34 17 c-21 11 -71 19 -143 23 -60 4 -126 12 -145 18 -47 15 -58 14
-107 -9z"/>
<path d="M6538 6863 c-13 -15 -123 -340 -143 -424 -12 -49 24 -73 186 -123 80
-25 155 -46 166 -46 11 0 28 9 37 19 19 21 146 408 146 445 0 37 -29 54 -176
101 -152 49 -193 54 -216 28z m107 -23 c19 -7 25 -15 20 -29 -7 -23 7 -34 70
-55 49 -16 50 -16 67 5 20 24 65 20 92 -9 14 -16 10 -35 -50 -222 -36 -113
-72 -211 -79 -218 -10 -11 -40 -5 -174 38 -89 28 -165 58 -167 65 -7 17 124
427 139 437 13 9 38 5 82 -12z m150 -61 c0 -9 -11 -13 -30 -13 -48 3 -85 21
-85 43 0 18 1 18 58 1 33 -10 57 -24 57 -31z"/>
<path d="M5640 6780 c0 -13 5 -20 13 -17 6 2 12 10 12 17 0 7 -6 15 -12 18 -8
2 -13 -5 -13 -18z"/>
<path d="M5745 6790 c-7 -12 2 -30 16 -30 5 0 9 9 9 20 0 21 -15 27 -25 10z"/>
<path d="M4160 6606 c0 -2 7 -7 16 -10 8 -3 12 -2 9 4 -6 10 -25 14 -25 6z"/>
<path d="M5731 6534 c0 -11 3 -14 6 -6 3 7 2 16 -1 19 -3 4 -6 -2 -5 -13z"/>
<path d="M6007 6455 c-26 -37 -177 -108 -240 -113 -45 -3 -55 -1 -74 20 -12
12 -23 34 -25 47 -3 23 -4 23 -43 -15 -71 -70 -132 -211 -174 -405 -24 -115
-57 -328 -66 -429 -3 -41 -8 -84 -10 -95 -4 -17 6 -22 69 -37 39 -10 106 -18
148 -18 65 0 76 3 81 19 5 21 20 24 182 42 l110 12 1 246 c0 339 31 499 106
569 25 23 74 32 97 18 19 -12 12 0 -33 59 -34 43 -103 109 -110 105 -1 0 -9
-12 -19 -25z"/>
<path d="M4336 6252 c-12 -20 103 -224 148 -261 33 -28 26 -2 -13 50 -23 30
-61 92 -85 138 -24 46 -46 79 -50 73z"/>
<path d="M2466 6154 c-19 -18 -19 -17 -5 -64 l11 -37 43 16 43 15 -14 35 c-22
52 -49 65 -78 35z"/>
<path d="M5084 6072 c-7 -4 -24 -32 -38 -62 -34 -71 -78 -124 -130 -157 -44
-29 -35 -44 12 -19 55 29 125 124 162 222 10 26 10 27 -6 16z"/>
<path d="M6796 5978 c-9 -12 -16 -33 -16 -45 0 -25 30 -46 54 -37 14 5 51 53
44 58 -2 1 -17 12 -35 24 l-32 22 -15 -22z"/>
<path d="M4819 5728 c-23 -32 -24 -39 -29 -255 l-5 -223 -28 -27 -27 -28 -861
1 -860 2 -29 27 -28 26 -7 -47 c-3 -25 -9 -53 -12 -60 -4 -12 51 -14 336 -14
l341 0 0 -151 0 -152 38 7 c20 3 101 6 180 6 l142 0 0 145 0 145 415 0 416 0
24 25 25 24 0 291 c0 159 -1 290 -3 290 -2 0 -14 -15 -28 -32z"/>
<path d="M5221 5314 c0 -11 3 -14 6 -6 3 7 2 16 -1 19 -3 4 -6 -2 -5 -13z"/>
<path d="M5145 5310 c-3 -5 -2 -10 4 -10 5 0 13 5 16 10 3 6 2 10 -4 10 -5 0
-13 -4 -16 -10z"/>
<path d="M5527 5192 c5 -38 -9 -82 -27 -82 -4 0 -12 15 -16 33 -7 32 -7 32
-16 7 -11 -30 -29 -42 -44 -29 -8 6 -14 6 -18 0 -7 -10 -25 -9 -43 2 -10 6
-13 -7 -13 -55 0 -35 -3 -100 -7 -145 l-6 -83 516 -2 517 -3 -7 135 c-3 74 -7
136 -7 137 -1 1 -31 -2 -67 -8 -35 -6 -181 -11 -324 -12 l-259 -2 -19 62 c-20
68 -21 68 -109 78 l-56 7 5 -40z"/>
<path d="M5220 5190 c8 -5 20 -10 25 -10 6 0 3 5 -5 10 -8 5 -19 10 -25 10 -5
0 -3 -5 5 -10z"/>
<path d="M5275 5140 c3 -5 8 -10 11 -10 2 0 4 5 4 10 0 6 -5 10 -11 10 -5 0
-7 -4 -4 -10z"/>
<path d="M1744 4495 c-4 -9 -2 -21 4 -27 15 -15 44 -1 40 19 -4 23 -36 29 -44
8z"/>
<path d="M3161 4501 c-19 -12 -6 -43 16 -39 10 2 18 12 18 22 0 22 -14 29 -34
17z"/>
<path d="M863 4488 c-16 -22 -93 -198 -93 -213 0 -26 29 -16 45 15 14 28 20
30 70 30 50 0 56 -2 70 -30 16 -32 32 -38 41 -17 7 20 -92 227 -109 227 -8 0
-19 -6 -24 -12z m57 -125 c0 -8 -15 -13 -40 -13 l-40 0 16 38 c9 20 19 44 22
52 4 10 11 2 24 -25 9 -22 18 -46 18 -52z"/>
<path d="M2487 4494 c-9 -9 -9 -196 -1 -218 3 -9 12 -16 20 -16 10 0 14 21 16
78 l3 77 33 -57 c19 -32 40 -58 48 -58 7 0 25 22 39 49 37 75 45 72 45 -13 0
-61 3 -76 15 -76 13 0 15 20 15 121 0 108 -2 120 -17 117 -9 -2 -34 -36 -56
-76 -22 -40 -41 -71 -43 -69 -2 2 -21 34 -41 73 -36 64 -59 85 -76 68z"/>
<path d="M3070 4453 c0 -37 -3 -44 -12 -35 -19 19 -66 14 -88 -8 -14 -14 -20
-33 -20 -65 0 -69 46 -104 100 -75 13 7 21 7 25 0 3 -5 13 -10 21 -10 11 0 14
22 14 120 0 113 -1 120 -20 120 -17 0 -20 -7 -20 -47z m-12 -65 c20 -20 15
-76 -8 -88 -32 -17 -60 4 -60 43 0 36 15 57 40 57 9 0 21 -5 28 -12z"/>
<path d="M3587 4494 c-12 -13 -7 -178 6 -204 9 -18 21 -25 41 -25 35 0 47 24
17 32 -18 5 -21 14 -23 101 -2 78 -6 97 -18 100 -9 1 -19 0 -23 -4z"/>
<path d="M4057 4480 c-45 -35 -55 -126 -20 -176 29 -40 97 -55 148 -32 27 12
31 46 4 39 -8 -2 -30 -6 -50 -9 -30 -3 -40 1 -58 23 -42 55 -16 137 45 138 16
0 41 -3 57 -7 21 -6 27 -5 27 8 0 39 -109 51 -153 16z"/>
<path d="M4250 4379 c0 -109 2 -120 18 -117 13 2 18 15 20 58 3 59 14 80 43
80 20 0 27 -19 31 -90 2 -32 7 -45 18 -45 19 0 27 114 10 145 -12 23 -68 28
-88 8 -9 -9 -12 -2 -12 35 0 40 -3 47 -20 47 -19 0 -20 -7 -20 -121z"/>
<path d="M4787 4494 c-10 -11 -8 -206 2 -223 15 -24 41 -5 41 31 l0 32 38 -37
c61 -59 90 -42 31 19 l-31 32 32 36 c27 31 30 37 15 42 -11 4 -28 -4 -50 -26
l-34 -33 -3 64 c-2 48 -7 65 -18 67 -9 1 -19 0 -23 -4z"/>
<path d="M5104 4485 c-12 -29 2 -163 19 -189 29 -44 116 -47 157 -6 17 17 20
34 20 115 0 88 -1 95 -20 95 -18 0 -20 -7 -20 -84 0 -94 -11 -116 -59 -116
-42 0 -50 17 -53 110 -3 71 -6 85 -21 88 -9 2 -20 -4 -23 -13z"/>
<path d="M5912 4463 c-24 -53 -23 -166 2 -221 25 -55 52 -58 40 -4 -11 47 -12
187 -1 230 12 47 -19 43 -41 -5z"/>
<path d="M6007 4494 c-9 -9 -9 -196 -1 -218 3 -9 12 -16 20 -16 10 0 14 21 16
78 l3 77 33 -57 c19 -32 40 -58 48 -58 8 0 27 25 42 56 l27 56 5 -73 c4 -60 8
-74 23 -77 15 -3 17 8 17 117 0 109 -2 121 -17 121 -12 0 -31 -25 -57 -75 -21
-42 -41 -73 -44 -70 -3 3 -22 36 -42 73 -34 62 -56 83 -73 66z"/>
<path d="M6337 4489 c-27 -16 -47 -64 -47 -113 0 -36 6 -52 29 -78 26 -30 35
-33 85 -33 58 0 83 13 73 39 -5 12 -11 13 -36 3 -69 -26 -124 31 -102 105 15
50 47 62 114 44 23 -7 27 -5 27 12 0 11 -7 23 -16 26 -25 10 -107 6 -127 -5z"/>
<path d="M6524 4486 c-3 -9 -4 -52 -2 -97 3 -74 6 -83 31 -105 33 -28 83 -32
126 -9 35 18 41 38 41 143 0 75 -2 82 -20 82 -18 0 -20 -7 -20 -84 0 -94 -11
-116 -59 -116 -42 0 -50 17 -53 110 -3 71 -6 85 -21 88 -9 2 -20 -4 -23 -12z"/>
<path d="M6765 4483 c21 -53 27 -140 14 -198 -17 -75 -17 -77 -1 -83 7 -2 21
16 33 44 38 86 14 254 -37 254 -11 0 -14 -5 -9 -17z"/>
<path d="M7220 4385 c0 -96 3 -115 15 -115 8 0 15 4 15 9 0 5 13 3 29 -5 76
-38 135 60 80 131 -22 27 -46 30 -91 10 -16 -6 -18 -1 -18 39 0 34 -4 46 -15
46 -12 0 -15 -19 -15 -115z m108 3 c17 -17 15 -73 -3 -88 -37 -30 -86 22 -66
73 11 29 47 37 69 15z"/>
<path d="M7740 4385 c0 -96 3 -115 15 -115 8 0 15 4 15 9 0 5 13 3 29 -5 20
-10 36 -12 53 -5 51 19 61 114 15 146 -24 17 -63 20 -72 5 -14 -23 -25 -7 -25
35 0 33 -4 45 -15 45 -12 0 -15 -19 -15 -115z m108 3 c29 -29 6 -98 -33 -98
-27 0 -45 25 -45 62 0 30 17 48 45 48 12 0 26 -5 33 -12z"/>
<path d="M8280 4485 c0 -8 9 -15 20 -15 11 0 20 7 20 15 0 8 -9 15 -20 15 -11
0 -20 -7 -20 -15z"/>
<path d="M1847 4473 c-4 -3 -7 -15 -7 -25 0 -10 -7 -18 -15 -18 -8 0 -15 -7
-15 -15 0 -8 7 -15 15 -15 11 0 15 -13 15 -53 0 -63 21 -90 67 -85 35 4 37 30
3 38 -22 5 -25 12 -28 53 -3 45 -2 47 22 47 16 0 26 6 26 15 0 9 -9 15 -25 15
-20 0 -25 5 -25 25 0 24 -18 34 -33 18z"/>
<path d="M1034 4417 c-2 -7 -3 -58 -2 -113 3 -85 5 -99 21 -102 14 -3 17 4 17
36 l0 40 29 -11 c59 -22 110 30 97 97 -12 58 -58 82 -107 56 -13 -7 -19 -7
-19 0 0 15 -30 12 -36 -3z m102 -25 c29 -20 21 -86 -12 -99 -20 -7 -54 29 -54
57 0 35 40 60 66 42z"/>
<path d="M1253 4423 c-7 -2 -13 -11 -13 -18 0 -10 12 -13 42 -12 33 2 43 -2
46 -15 3 -15 -4 -18 -32 -18 -47 0 -79 -30 -67 -62 11 -30 55 -46 81 -30 12 7
21 8 25 2 3 -6 13 -10 21 -10 21 0 20 133 -2 154 -15 15 -74 21 -101 9z m75
-105 c-4 -28 -45 -38 -55 -13 -7 19 12 35 40 35 13 0 18 -6 15 -22z"/>
<path d="M1747 4423 c-9 -8 -9 -126 -1 -147 3 -9 12 -16 19 -16 18 0 25 23 25
85 0 29 -3 60 -6 69 -6 16 -26 21 -37 9z"/>
<path d="M1960 4362 c0 -54 4 -72 18 -85 21 -19 49 -22 72 -7 9 5 19 5 28 -2
23 -20 33 6 30 83 -2 61 -6 74 -20 77 -15 3 -18 -5 -18 -52 0 -36 -5 -60 -16
-70 -32 -33 -52 -10 -56 64 -2 43 -7 56 -20 58 -16 3 -18 -5 -18 -66z"/>
<path d="M2802 4423 c-22 -9 -44 -63 -37 -94 13 -57 93 -89 140 -56 27 20 11
39 -20 25 -30 -13 -75 3 -75 27 0 12 12 15 55 15 52 0 55 1 55 25 0 49 -63 80
-118 58z m78 -43 c10 -18 8 -20 -30 -20 -27 0 -40 4 -40 13 0 33 53 38 70 7z"/>
<path d="M3160 4345 c0 -77 2 -86 18 -83 14 3 17 15 17 83 0 68 -3 80 -17 83
-16 3 -18 -6 -18 -83z"/>
<path d="M3259 4411 c-35 -28 -33 -95 4 -127 39 -33 107 -31 107 3 0 11 -7 13
-25 9 -39 -10 -65 9 -65 48 0 42 20 60 59 51 35 -7 50 9 22 24 -30 17 -76 13
-102 -8z"/>
<path d="M3414 4415 c-21 -16 -17 -18 41 -19 29 -1 40 -6 43 -18 3 -14 -4 -18
-31 -18 -19 0 -45 -8 -58 -19 -20 -16 -22 -22 -11 -45 13 -29 57 -44 82 -28
12 7 21 7 28 0 20 -20 32 4 32 66 0 48 -4 67 -18 79 -23 21 -82 22 -108 2z
m86 -88 c0 -18 -21 -37 -41 -37 -24 0 -32 27 -11 39 24 15 52 13 52 -2z"/>
<path d="M4460 4405 c-52 -55 -12 -145 64 -145 37 0 72 22 62 38 -5 8 -13 8
-31 0 -30 -13 -75 3 -75 27 0 12 12 15 55 15 52 0 55 1 55 25 0 62 -85 88
-130 40z m88 -17 c21 -21 13 -28 -28 -28 -38 0 -52 14 -33 33 11 11 48 8 61
-5z"/>
<path d="M4642 4407 c-65 -69 16 -181 99 -137 32 18 23 33 -15 26 -40 -8 -66
12 -66 49 0 37 27 58 67 50 25 -4 33 -2 33 8 0 35 -87 37 -118 4z"/>
<path d="M5352 4318 c2 -93 6 -113 18 -113 10 0 16 12 18 36 3 36 4 37 32 26
78 -29 133 79 73 145 -18 20 -73 24 -91 6 -9 -9 -12 -9 -12 0 0 7 -9 12 -20
12 -20 0 -21 -5 -18 -112z m106 70 c17 -17 15 -73 -3 -88 -20 -17 -54 -3 -61
26 -13 52 31 95 64 62z"/>
<path d="M7452 4423 c-16 -6 -42 -56 -42 -82 0 -11 10 -32 23 -47 18 -21 32
-27 64 -27 43 0 63 8 63 24 0 5 -17 7 -40 3 -42 -7 -70 6 -70 32 0 10 15 14
55 14 52 0 55 1 55 25 0 47 -57 79 -108 58z m66 -25 c24 -24 13 -38 -28 -38
-43 0 -55 20 -22 39 23 14 36 13 50 -1z"/>
<path d="M7607 4423 c-4 -3 -7 -39 -7 -80 0 -66 2 -73 20 -73 17 0 20 7 20 48
0 56 6 67 43 81 16 6 25 15 22 21 -9 15 -31 12 -46 -6 -11 -14 -13 -14 -21 0
-10 17 -20 20 -31 9z"/>
<path d="M7958 4419 c-31 -17 -20 -27 23 -22 29 4 44 2 50 -8 14 -23 10 -29
-20 -29 -16 0 -42 -5 -56 -10 -36 -14 -32 -59 8 -78 24 -12 31 -11 53 2 13 9
24 12 24 6 0 -5 7 -10 15 -10 24 0 21 121 -3 143 -21 19 -68 22 -94 6z m82
-85 c0 -20 -24 -44 -44 -44 -27 0 -40 22 -23 39 11 11 67 16 67 5z"/>
<path d="M8138 4419 c-11 -6 -18 -22 -18 -39 0 -27 4 -31 45 -41 35 -9 45 -16
45 -32 0 -18 -5 -19 -51 -14 -37 5 -49 3 -46 -6 5 -17 65 -27 97 -15 54 18 43
73 -16 84 -38 7 -55 30 -33 45 14 9 28 8 62 -6 12 -5 17 -3 17 8 0 25 -69 36
-102 16z"/>
<path d="M8285 4408 c-3 -13 -5 -49 -3 -78 2 -43 7 -56 21 -58 16 -3 18 4 15
74 -3 78 -21 111 -33 62z"/>
<path d="M8388 4419 c-11 -6 -18 -22 -18 -39 0 -27 4 -31 45 -41 35 -9 45 -16
45 -32 0 -18 -5 -19 -51 -14 -36 5 -49 3 -47 -5 7 -19 60 -29 96 -17 29 10 33
15 30 42 -3 27 -8 33 -43 43 -22 6 -41 18 -43 27 -4 20 32 31 57 18 26 -14 31
-14 31 3 0 24 -70 34 -102 15z"/>
<path d="M4957 4364 c-14 -15 7 -24 54 -24 37 0 49 4 49 15 0 11 -12 15 -48
15 -27 0 -52 -3 -55 -6z"/>
<path d="M844 4111 c-62 -27 -84 -123 -44 -188 34 -56 119 -64 172 -16 45 40
41 138 -6 182 -26 25 -89 36 -122 22z m82 -39 c40 -26 45 -102 9 -137 -29 -30
-55 -32 -86 -6 -31 25 -34 98 -5 130 19 21 61 28 82 13z"/>
<path d="M1045 4098 c-3 -13 -5 -66 -3 -118 3 -87 5 -95 23 -95 14 0 21 8 25
28 l5 28 29 -30 c29 -30 66 -42 66 -21 0 5 -13 24 -29 42 l-30 33 32 33 c26
27 29 34 17 42 -11 7 -25 0 -52 -27 l-37 -36 -3 69 c-2 56 -6 69 -20 72 -11 2
-19 -5 -23 -20z"/>
<path d="M1970 4100 c0 -16 5 -21 23 -18 12 2 22 10 22 18 0 8 -10 16 -22 18
-18 3 -23 -2 -23 -18z"/>
<path d="M2063 4110 c-13 -5 -23 -17 -23 -25 0 -14 8 -15 45 -9 55 8 67 -11
36 -55 -22 -30 -28 -71 -11 -71 6 0 10 4 10 10 0 5 14 25 30 43 17 19 30 46
30 60 0 46 -60 70 -117 47z"/>
<path d="M1232 4038 c-15 -15 -16 -87 -2 -122 13 -35 50 -52 80 -36 16 8 25 9
33 1 22 -22 37 9 37 79 0 112 -46 120 -52 10 -3 -51 -5 -55 -28 -55 -23 0 -25
4 -28 57 -3 60 -19 87 -40 66z"/>
<path d="M1482 4034 c-12 -8 -22 -10 -22 -5 0 6 -9 11 -20 11 -20 0 -21 -5
-18 -112 2 -93 6 -113 18 -113 10 0 16 13 18 42 l3 41 29 -16 c27 -16 30 -16
57 4 54 41 53 127 -3 153 -32 14 -35 14 -62 -5z m53 -74 c0 -40 -3 -45 -24
-48 -28 -4 -51 20 -51 53 0 29 20 46 50 43 23 -3 25 -7 25 -48z"/>
<path d="M1665 4043 c-26 -7 -46 -23 -40 -33 3 -4 25 -5 50 -2 36 4 45 2 45
-11 0 -9 -13 -18 -32 -22 -57 -11 -66 -15 -72 -32 -8 -20 17 -60 43 -68 11 -3
30 -1 41 5 15 8 25 8 34 1 7 -6 16 -8 19 -4 13 12 8 140 -6 151 -16 14 -57 21
-82 15z m55 -108 c0 -20 -39 -40 -52 -27 -6 6 -8 18 -5 26 8 20 57 21 57 1z"/>
<path d="M1840 4041 c-46 -13 -50 -91 -4 -91 7 0 25 -5 40 -10 24 -10 26 -13
13 -25 -11 -12 -22 -13 -49 -5 -37 11 -45 8 -37 -13 7 -18 61 -29 90 -18 63
24 59 75 -9 92 -44 11 -58 32 -29 43 8 3 26 1 40 -4 16 -6 27 -6 31 1 14 23
-42 43 -86 30z"/>
<path d="M1970 3960 c0 -73 2 -80 20 -80 18 0 20 7 20 80 0 73 -2 80 -20 80
-18 0 -20 -7 -20 -80z"/>
<path d="M2091 3916 c-16 -19 -6 -36 20 -36 15 0 20 6 17 22 -4 27 -21 33 -37
14z"/>
<path d="M1630 3490 c0 -14 -7 -20 -24 -20 -34 0 -52 -25 -40 -58 8 -21 16
-27 42 -28 l32 -1 0 64 c0 34 -2 63 -5 63 -3 0 -5 -9 -5 -20z m-6 -78 c-13
-20 -25 -20 -38 1 -7 10 -5 21 4 32 12 15 15 15 29 0 12 -12 13 -19 5 -33z"/>
<path d="M1675 3500 c-3 -5 -1 -10 4 -10 6 0 11 5 11 10 0 6 -2 10 -4 10 -3 0
-8 -4 -11 -10z"/>
<path d="M1900 3445 c0 -37 4 -65 10 -65 6 0 10 28 10 65 0 37 -4 65 -10 65
-6 0 -10 -28 -10 -65z"/>
<path d="M2160 3445 c0 -69 17 -90 22 -27 2 25 8 37 18 37 10 0 16 -12 18 -37
4 -45 22 -51 22 -9 0 45 -10 61 -36 61 -17 0 -24 6 -24 20 0 11 -4 20 -10 20
-6 0 -10 -28 -10 -65z"/>
<path d="M2446 3503 c-3 -3 -6 -33 -6 -65 0 -45 3 -58 15 -58 9 0 15 9 15 23
l0 22 20 -25 c10 -14 22 -21 26 -17 4 4 -1 16 -11 27 -17 19 -17 21 0 40 22
24 9 27 -17 3 -17 -15 -18 -14 -18 15 0 31 -11 47 -24 35z"/>
<path d="M2980 3446 l0 -64 38 1 c36 2 37 3 37 42 0 37 -2 40 -27 40 -23 -1
-28 4 -28 22 0 13 -4 23 -10 23 -6 0 -10 -28 -10 -64z m58 -10 c6 -27 -6 -46
-23 -40 -15 6 -21 45 -8 58 11 10 28 1 31 -18z"/>
<path d="M3260 3448 c0 -62 1 -64 26 -66 33 -3 54 14 54 42 0 27 -18 46 -42
46 -10 0 -18 6 -18 14 0 8 -4 18 -10 21 -6 4 -10 -18 -10 -57z m58 -12 c4 -20
-16 -48 -29 -40 -11 6 -12 48 -2 58 11 10 28 1 31 -18z"/>
<path d="M3545 3500 c-3 -5 -1 -10 4 -10 6 0 11 5 11 10 0 6 -2 10 -4 10 -3 0
-8 -4 -11 -10z"/>
<path d="M3878 3445 c-2 -47 0 -65 10 -65 6 0 12 10 12 23 l0 22 20 -25 c10
-14 22 -21 26 -17 4 4 -1 16 -11 27 -17 19 -17 21 0 40 22 24 9 27 -17 3 -17
-15 -18 -14 -18 15 0 60 -18 41 -22 -23z"/>
<path d="M4365 3500 c-3 -5 -1 -10 4 -10 6 0 11 5 11 10 0 6 -2 10 -4 10 -3 0
-8 -4 -11 -10z"/>
<path d="M4670 3487 c0 -18 -5 -23 -27 -22 -26 0 -28 -3 -28 -40 0 -39 1 -40
38 -42 l37 -1 0 64 c0 36 -4 64 -10 64 -5 0 -10 -10 -10 -23z m-5 -63 c0 -19
-5 -29 -15 -29 -16 0 -25 28 -16 51 10 25 31 10 31 -22z"/>
<path d="M4810 3445 c0 -37 4 -65 10 -65 6 0 10 28 10 65 0 37 -4 65 -10 65
-6 0 -10 -28 -10 -65z"/>
<path d="M4960 3445 c0 -69 17 -90 22 -27 2 25 8 37 18 37 10 0 16 -12 18 -37
2 -21 8 -38 13 -38 6 0 9 19 7 43 -3 38 -6 42 -30 45 -20 2 -28 9 -28 23 0 10
-4 19 -10 19 -6 0 -10 -28 -10 -65z"/>
<path d="M5700 3500 c0 -5 5 -10 11 -10 5 0 7 5 4 10 -3 6 -8 10 -11 10 -2 0
-4 -4 -4 -10z"/>
<path d="M5750 3445 c0 -37 4 -65 10 -65 6 0 10 10 10 23 l1 22 18 -22 c27
-32 47 -29 22 4 -20 24 -20 27 -5 45 21 22 7 24 -18 1 -17 -15 -18 -14 -18 20
0 21 -4 37 -10 37 -6 0 -10 -28 -10 -65z"/>
<path d="M6650 3487 c0 -20 -4 -24 -20 -20 -26 7 -50 -13 -50 -42 0 -30 19
-44 58 -43 l32 1 0 58 c0 32 -4 61 -10 64 -6 3 -10 -5 -10 -18z m-6 -75 c-13
-20 -25 -20 -38 1 -7 10 -5 21 4 32 12 15 15 15 29 0 12 -12 13 -19 5 -33z"/>
<path d="M6695 3500 c-3 -5 -1 -10 4 -10 6 0 11 5 11 10 0 6 -2 10 -4 10 -3 0
-8 -4 -11 -10z"/>
<path d="M7310 3445 c0 -64 12 -86 24 -42 l6 22 15 -22 c22 -32 41 -29 20 3
-16 24 -16 27 1 45 15 17 15 19 1 19 -9 0 -23 -10 -31 -22 -16 -22 -16 -21
-16 20 0 23 -4 42 -10 42 -6 0 -10 -28 -10 -65z"/>
<path d="M8176 3501 c-4 -5 -2 -12 3 -15 5 -4 12 -2 15 3 4 5 2 12 -3 15 -5 4
-12 2 -15 -3z"/>
<path d="M8220 3445 c0 -64 12 -86 24 -42 l6 22 15 -22 c22 -32 41 -29 20 3
-16 24 -16 27 1 45 11 13 13 19 5 19 -7 0 -21 -10 -32 -22 l-18 -23 -1 43 c0
23 -4 42 -10 42 -6 0 -10 -28 -10 -65z"/>
<path d="M770 3441 c0 -71 20 -84 21 -13 l1 47 16 -47 c8 -27 21 -48 27 -48 6
0 19 21 27 48 l16 47 1 -47 c1 -70 21 -59 21 12 0 75 -20 81 -46 14 l-18 -46
-17 43 c-9 24 -24 45 -33 47 -13 3 -16 -7 -16 -57z"/>
<path d="M936 3478 c-9 -12 -16 -29 -16 -38 0 -30 30 -60 61 -60 16 0 29 5 29
10 0 6 -11 10 -25 10 -31 0 -50 32 -35 60 10 19 21 24 48 21 6 -1 12 3 12 9 0
20 -58 11 -74 -12z"/>
<path d="M1044 3445 c1 -58 2 -60 29 -63 42 -5 57 13 57 69 0 27 -4 49 -10 49
-5 0 -10 -22 -10 -50 0 -47 -2 -50 -25 -50 -25 0 -30 8 -39 75 -2 17 -3 3 -2
-30z"/>
<path d="M1272 3488 c-17 -17 -15 -101 4 -124 15 -19 15 -19 10 1 -2 11 -7 29
-10 40 -3 11 -2 36 4 55 11 38 9 45 -8 28z"/>
<path d="M1320 3440 c0 -64 19 -85 21 -22 l1 37 12 -34 c18 -49 32 -49 49 1
l15 43 1 -42 c1 -67 21 -50 21 17 0 71 -21 83 -40 23 -18 -57 -26 -59 -40 -9
-19 68 -40 61 -40 -14z"/>
<path d="M2066 3484 c-19 -18 -21 -75 -4 -92 14 -14 68 -16 68 -3 0 5 -12 11
-27 13 -23 2 -29 9 -31 33 -4 32 20 58 44 48 8 -3 14 0 14 6 0 17 -46 13 -64
-5z"/>
<path d="M2600 3452 c0 -52 12 -72 45 -72 12 0 26 5 33 12 14 14 16 108 2 108
-5 0 -10 -22 -10 -49 0 -48 -10 -63 -37 -54 -8 3 -13 23 -13 54 0 27 -4 49
-10 49 -5 0 -10 -22 -10 -48z"/>
<path d="M2832 3470 c10 -31 8 -68 -7 -105 -8 -18 -7 -18 8 -6 23 18 32 75 17
111 -16 39 -32 39 -18 0z"/>
<path d="M7144 3480 c-6 -6 -8 -29 -5 -53 5 -36 10 -42 31 -45 22 -2 23 -1 8
8 -11 7 -18 23 -18 40 0 22 5 30 18 31 13 0 14 2 2 6 -8 3 -18 10 -21 14 -3 5
-10 4 -15 -1z"/>
<path d="M8114 3480 c-6 -6 -8 -29 -5 -53 5 -36 10 -42 31 -45 22 -2 23 -1 8
8 -11 7 -18 23 -18 40 0 22 5 30 18 31 13 0 14 2 2 6 -8 3 -18 10 -21 14 -3 5
-10 4 -15 -1z"/>
<path d="M1474 3456 c-3 -8 -4 -27 -2 -43 2 -24 8 -28 36 -31 17 -2 32 1 32 6
0 5 -10 8 -21 8 -12 -1 -24 5 -26 12 -3 8 6 12 26 12 34 0 36 2 21 31 -12 22
-58 26 -66 5z m51 -6 c3 -5 -3 -10 -15 -10 -12 0 -18 5 -15 10 3 6 10 10 15
10 5 0 12 -4 15 -10z"/>
<path d="M1670 3425 c0 -25 5 -45 10 -45 6 0 10 20 10 45 0 25 -4 45 -10 45
-5 0 -10 -20 -10 -45z"/>
<path d="M1719 3449 c-16 -31 3 -69 36 -69 14 0 25 4 25 10 0 5 -6 7 -14 4
-22 -8 -38 29 -22 51 7 10 18 15 24 11 7 -4 12 -2 12 3 0 20 -49 12 -61 -10z"/>
<path d="M1810 3462 c0 -6 9 -8 20 -5 11 3 20 0 20 -6 0 -6 -11 -14 -26 -17
-18 -5 -24 -12 -22 -28 2 -16 10 -21 36 -22 33 -1 33 0 30 40 -3 36 -6 41 -30
44 -16 2 -28 -1 -28 -6z m38 -54 c-6 -18 -28 -21 -28 -4 0 9 7 16 16 16 9 0
14 -5 12 -12z"/>
<path d="M2272 3458 c-29 -29 -7 -78 34 -78 13 0 25 4 29 9 3 6 -7 9 -21 8
-15 -1 -29 4 -31 11 -3 8 6 12 26 12 31 0 36 6 25 34 -7 19 -45 21 -62 4z m43
-8 c3 -5 -3 -10 -15 -10 -12 0 -18 5 -15 10 3 6 10 10 15 10 5 0 12 -4 15 -10z"/>
<path d="M2364 3456 c-3 -8 -4 -27 -2 -43 2 -22 9 -29 31 -31 15 -2 27 1 27 6
0 5 -8 9 -17 8 -14 -1 -18 7 -18 29 0 22 4 30 18 29 9 -1 17 2 17 7 0 15 -50
10 -56 -5z"/>
<path d="M2720 3404 c0 -36 4 -64 10 -64 6 0 10 10 10 23 0 18 5 23 28 22 25
0 27 3 27 40 0 39 -1 40 -37 42 l-38 1 0 -64z m58 32 c6 -27 -6 -46 -23 -40
-15 6 -21 45 -8 58 11 10 28 1 31 -18z"/>
<path d="M3092 3458 c-15 -15 -16 -50 0 -66 15 -15 68 -16 68 -1 0 6 -8 8 -19
4 -10 -3 -24 1 -31 10 -11 13 -8 15 19 15 28 0 32 3 29 23 -3 25 -45 36 -66
15z m45 -15 c3 -7 -4 -9 -16 -6 -12 3 -18 9 -15 15 7 11 26 6 31 -9z"/>
<path d="M3180 3423 c0 -23 5 -43 10 -43 6 0 10 14 10 31 0 22 5 32 20 36 30
8 24 22 -10 21 -29 -1 -30 -3 -30 -45z"/>
<path d="M3370 3462 c0 -6 9 -8 20 -5 28 7 25 -14 -2 -23 -51 -15 -44 -56 9
-52 33 2 34 3 31 43 -3 35 -6 40 -30 43 -16 2 -28 -1 -28 -6z m38 -54 c-6 -18
-28 -21 -28 -4 0 9 7 16 16 16 9 0 14 -5 12 -12z"/>
<path d="M3454 3458 c-4 -6 4 -21 20 -33 28 -22 23 -41 -8 -29 -9 3 -16 1 -16
-6 0 -7 13 -10 32 -8 42 4 50 33 14 49 -26 12 -26 35 0 25 7 -3 16 -1 19 4 4
6 -7 10 -24 10 -16 0 -33 -5 -37 -12z"/>
<path d="M3540 3425 c0 -25 5 -45 10 -45 6 0 10 20 10 45 0 25 -4 45 -10 45
-5 0 -10 -20 -10 -45z"/>
<path d="M3584 3458 c-4 -6 4 -21 20 -33 28 -22 23 -41 -8 -29 -9 3 -16 1 -16
-6 0 -7 13 -10 32 -8 42 4 50 33 14 49 -26 12 -26 35 0 25 7 -3 16 -1 19 4 4
6 -7 10 -24 10 -16 0 -33 -5 -37 -12z"/>
<path d="M3777 3464 c-12 -13 -8 -61 7 -74 8 -6 25 -10 38 -8 20 3 23 9 23 43
0 37 -2 40 -30 43 -17 2 -34 0 -38 -4z m48 -40 c0 -19 -5 -29 -15 -29 -16 0
-25 28 -16 51 10 25 31 10 31 -22z"/>
<path d="M3972 3428 c3 -42 4 -43 41 -44 l37 -1 0 43 c0 54 -18 59 -22 7 -2
-26 -8 -38 -18 -38 -10 0 -16 12 -18 38 -2 20 -8 37 -13 37 -6 0 -9 -19 -7
-42z"/>
<path d="M4080 3406 c0 -37 4 -66 10 -66 6 0 10 9 10 20 0 15 7 20 25 20 18 0
26 7 31 24 11 45 2 61 -39 64 l-37 3 0 -65z m55 18 c0 -19 -5 -29 -15 -29 -16
0 -25 28 -16 51 10 25 31 10 31 -22z"/>
<path d="M4190 3461 c0 -5 8 -7 19 -4 32 8 33 -14 0 -26 -42 -15 -37 -46 9
-47 31 -1 32 0 32 43 0 41 -1 43 -30 43 -16 0 -30 -4 -30 -9z m40 -56 c-7 -8
-16 -15 -21 -15 -5 0 -9 7 -9 15 0 9 9 15 21 15 18 0 19 -2 9 -15z"/>
<path d="M4280 3450 c0 -10 9 -24 20 -30 11 -6 20 -16 20 -22 0 -5 -9 -8 -20
-5 -11 3 -20 1 -20 -4 0 -5 11 -9 25 -9 35 0 45 29 17 48 -28 18 -29 36 -2 29
11 -3 20 -1 20 4 0 5 -13 9 -30 9 -23 0 -30 -4 -30 -20z"/>
<path d="M4360 3425 c0 -25 5 -45 10 -45 6 0 10 20 10 45 0 25 -4 45 -10 45
-5 0 -10 -20 -10 -45z"/>
<path d="M4520 3462 c0 -6 9 -8 20 -5 29 8 25 -16 -6 -27 -37 -15 -28 -45 14
-46 33 -1 33 0 30 40 -3 36 -6 41 -30 44 -16 2 -28 -1 -28 -6z m38 -54 c-6
-18 -28 -21 -28 -4 0 9 7 16 16 16 9 0 14 -5 12 -12z"/>
<path d="M4720 3461 c0 -5 8 -7 19 -4 32 8 33 -14 0 -26 -45 -15 -36 -46 14
-48 34 -1 37 1 37 27 0 46 -10 60 -41 60 -16 0 -29 -4 -29 -9z m40 -56 c-12
-15 -30 -12 -30 6 0 5 10 9 21 9 18 0 19 -2 9 -15z"/>
<path d="M4870 3462 c0 -6 9 -8 20 -5 28 7 25 -14 -2 -23 -51 -15 -44 -56 9
-52 33 2 34 3 31 43 -3 35 -6 40 -30 43 -16 2 -28 -1 -28 -6z m40 -51 c0 -14
-18 -23 -30 -16 -6 4 -8 11 -5 16 8 12 35 12 35 0z"/>
<path d="M5170 3406 c0 -37 4 -66 10 -66 6 0 10 9 10 20 0 15 7 20 25 20 18 0
26 7 31 24 11 45 2 61 -39 64 l-37 3 0 -65z m55 18 c0 -19 -5 -29 -15 -29 -16
0 -25 28 -16 51 10 25 31 10 31 -22z"/>
<path d="M5274 3443 c-4 -14 -2 -33 3 -42 11 -17 63 -28 63 -13 0 5 -10 8 -21
8 -12 -1 -24 5 -26 12 -3 8 6 12 26 12 32 0 41 16 19 38 -22 22 -57 14 -64
-15z m51 7 c3 -5 -3 -10 -15 -10 -12 0 -18 5 -15 10 3 6 10 10 15 10 5 0 12
-4 15 -10z"/>
<path d="M5370 3425 c0 -54 18 -60 22 -7 2 25 8 37 18 37 10 0 16 -12 18 -37
4 -48 20 -49 24 -3 2 20 8 35 13 35 6 0 11 -15 13 -35 5 -50 22 -43 22 9 l0
44 -65 1 -65 0 0 -44z"/>
<path d="M5534 3456 c-3 -8 -4 -27 -2 -43 2 -24 8 -28 36 -31 17 -2 32 1 32 6
0 5 -10 8 -21 8 -12 -1 -24 5 -26 12 -3 8 6 12 26 12 34 0 36 2 21 31 -12 22
-58 26 -66 5z m46 -6 c0 -5 -7 -10 -16 -10 -8 0 -12 5 -9 10 3 6 10 10 16 10
5 0 9 -4 9 -10z"/>
<path d="M5630 3423 c0 -24 5 -43 10 -43 6 0 10 16 10 35 0 24 5 35 15 35 8 0
15 4 15 10 0 5 -11 9 -25 8 -22 -2 -25 -7 -25 -45z"/>
<path d="M5700 3425 c0 -25 5 -45 10 -45 6 0 10 20 10 45 0 25 -4 45 -10 45
-5 0 -10 -20 -10 -45z"/>
<path d="M5844 3455 c-7 -18 3 -35 22 -35 8 0 14 -7 14 -16 0 -11 -6 -15 -20
-11 -11 3 -20 1 -20 -4 0 -5 11 -9 25 -9 35 0 45 29 17 48 -28 18 -29 36 -2
29 11 -3 20 -1 20 4 0 15 -50 10 -56 -6z"/>
<path d="M5930 3461 c0 -5 8 -7 19 -4 32 8 33 -14 0 -26 -45 -15 -36 -46 14
-48 34 -1 37 1 37 27 0 46 -10 60 -41 60 -16 0 -29 -4 -29 -9z m40 -56 c-7 -8
-16 -15 -21 -15 -5 0 -9 7 -9 15 0 9 9 15 21 15 18 0 19 -2 9 -15z"/>
<path d="M6030 3462 c0 -6 9 -8 20 -5 11 3 20 0 20 -6 0 -6 -11 -13 -25 -17
-18 -4 -25 -13 -25 -30 0 -22 4 -24 35 -22 35 2 36 3 33 43 -3 35 -6 40 -30
43 -16 2 -28 -1 -28 -6z m38 -54 c-6 -18 -28 -21 -28 -4 0 9 7 16 16 16 9 0
14 -5 12 -12z"/>
<path d="M6120 3424 c0 -54 18 -59 22 -6 2 25 8 37 18 37 10 0 16 -12 18 -37
2 -21 8 -38 13 -38 6 0 9 19 7 43 -3 41 -4 42 -40 44 l-38 1 0 -44z"/>
<path d="M6330 3423 c0 -53 18 -57 22 -5 2 25 8 37 18 37 10 0 16 -12 18 -37
4 -49 20 -49 24 -1 4 52 28 56 28 4 0 -23 5 -41 10 -41 6 0 10 20 10 45 l0 44
-65 -1 -65 -1 0 -44z"/>
<path d="M6494 3456 c-3 -8 -4 -27 -2 -43 2 -24 8 -28 36 -31 17 -2 32 1 32 6
0 5 -10 8 -21 8 -12 -1 -24 5 -26 12 -3 8 6 12 26 12 32 0 41 16 19 38 -16 16
-57 15 -64 -2z m51 -6 c3 -5 -3 -10 -15 -10 -12 0 -18 5 -15 10 3 6 10 10 15
10 5 0 12 -4 15 -10z"/>
<path d="M6690 3425 c0 -25 5 -45 10 -45 6 0 10 20 10 45 0 25 -4 45 -10 45
-5 0 -10 -20 -10 -45z"/>
<path d="M6736 3455 c-3 -9 4 -21 19 -31 32 -21 32 -38 0 -30 -15 4 -25 2 -25
-4 0 -7 14 -10 32 -8 42 4 50 33 14 49 -26 12 -26 35 0 25 7 -3 16 -1 19 4 4
6 -7 10 -23 10 -17 0 -32 -6 -36 -15z"/>
<path d="M6920 3438 c0 -46 12 -59 48 -56 31 2 32 4 32 45 0 24 -4 43 -9 43
-4 0 -6 -10 -4 -22 2 -13 -3 -32 -11 -43 -14 -17 -17 -18 -26 -5 -5 8 -10 27
-10 43 0 15 -4 27 -10 27 -5 0 -10 -15 -10 -32z"/>
<path d="M7030 3424 c0 -54 18 -59 22 -6 2 25 8 37 18 37 10 0 16 -12 18 -37
2 -21 8 -38 13 -38 6 0 9 19 7 43 -3 41 -4 42 -40 44 l-38 1 0 -44z"/>
<path d="M7200 3438 c0 -46 11 -58 50 -56 l35 1 -4 46 c-4 46 -4 46 -12 13
-14 -66 -48 -65 -49 1 0 15 -4 27 -10 27 -5 0 -10 -15 -10 -32z"/>
<path d="M7510 3423 c0 -53 18 -57 22 -5 2 25 8 37 18 37 10 0 16 -12 18 -37
4 -48 22 -50 22 -4 0 38 17 57 31 35 5 -8 9 -26 9 -41 0 -16 5 -28 10 -28 12
0 13 59 2 77 -4 7 -32 11 -70 11 l-62 -1 0 -44z"/>
<path d="M7677 3463 c-11 -11 -8 -58 5 -71 14 -14 58 -16 58 -4 0 5 -10 8 -21
8 -12 -1 -24 5 -26 12 -3 8 6 12 26 12 32 0 41 16 19 38 -13 13 -50 16 -61 5z
m48 -13 c3 -5 -3 -10 -15 -10 -12 0 -18 5 -15 10 3 6 10 10 15 10 5 0 12 -4
15 -10z"/>
<path d="M7770 3425 c0 -54 18 -60 22 -7 2 25 8 37 18 37 10 0 16 -12 18 -37
4 -48 20 -49 24 -3 2 20 8 35 13 35 6 0 11 -15 13 -35 2 -19 8 -35 13 -35 6 0
9 19 7 43 l-3 42 -62 3 -63 2 0 -45z"/>
<path d="M7940 3461 c0 -6 6 -8 14 -5 8 3 17 1 20 -4 3 -6 -8 -15 -24 -21 -17
-5 -30 -14 -30 -18 1 -21 19 -32 48 -30 32 2 33 3 30 42 -3 35 -6 40 -30 43
-16 2 -28 -1 -28 -7z m40 -50 c0 -14 -18 -23 -30 -16 -6 4 -8 11 -5 16 8 12
35 12 35 0z"/>
<path d="M8024 3458 c-4 -6 4 -21 20 -33 28 -22 23 -41 -8 -29 -9 3 -16 1 -16
-6 0 -7 13 -10 32 -8 42 4 50 33 14 49 -31 14 -35 34 -6 26 11 -3 23 -1 26 4
3 5 -8 9 -25 9 -16 0 -33 -5 -37 -12z"/>
<path d="M8180 3425 c0 -25 5 -45 10 -45 6 0 10 20 10 45 0 25 -4 45 -10 45
-5 0 -10 -20 -10 -45z"/>
<path d="M8324 3461 c4 -6 13 -8 20 -5 8 3 17 1 20 -4 3 -6 -8 -15 -25 -21
-45 -16 -36 -46 14 -46 l38 -1 -3 41 c-3 37 -5 40 -37 43 -21 2 -31 0 -27 -7z
m46 -50 c0 -14 -18 -23 -30 -16 -6 4 -8 11 -5 16 8 12 35 12 35 0z"/>
<path d="M8420 3423 c0 -53 18 -57 22 -5 2 25 8 37 18 37 10 0 16 -12 18 -37
4 -46 22 -51 22 -5 0 45 -12 58 -48 55 -31 -2 -32 -4 -32 -45z"/>
<path d="M2543 3423 c9 -2 23 -2 30 0 6 3 -1 5 -18 5 -16 0 -22 -2 -12 -5z"/>
<path d="M2170 3235 c0 -37 4 -65 10 -65 6 0 10 28 10 65 0 37 -4 65 -10 65
-6 0 -10 -28 -10 -65z"/>
<path d="M2216 3291 c-4 -5 -2 -12 3 -15 5 -4 12 -2 15 3 4 5 2 12 -3 15 -5 4
-12 2 -15 -3z"/>
<path d="M2260 3235 c0 -64 12 -86 24 -42 l6 22 15 -22 c22 -32 41 -29 20 3
-16 24 -16 27 1 45 15 16 15 19 2 19 -9 0 -23 -10 -31 -22 -16 -22 -16 -22
-16 20 -1 23 -5 42 -11 42 -6 0 -10 -28 -10 -65z"/>
<path d="M2510 3236 c0 -37 4 -66 10 -66 6 0 10 10 10 23 l0 22 20 -25 c10
-14 22 -21 26 -17 4 4 -1 16 -11 27 -17 19 -17 21 0 40 22 24 9 27 -17 3 -17
-15 -18 -14 -18 15 0 17 -4 34 -10 37 -6 4 -10 -18 -10 -59z"/>
<path d="M2870 3277 c0 -18 -5 -23 -27 -22 -26 0 -28 -3 -28 -40 0 -39 1 -40
38 -42 l37 -1 0 64 c0 36 -4 64 -10 64 -5 0 -10 -10 -10 -23z m-5 -63 c0 -19
-5 -29 -15 -29 -16 0 -25 28 -16 51 10 25 31 10 31 -22z"/>
<path d="M2920 3284 c0 -8 5 -12 10 -9 6 4 8 11 5 16 -9 14 -15 11 -15 -7z"/>
<path d="M3046 3291 c-4 -5 -2 -12 3 -15 5 -4 12 -2 15 3 4 5 2 12 -3 15 -5 4
-12 2 -15 -3z"/>
<path d="M3190 3235 c0 -64 12 -86 24 -42 l6 22 15 -22 c22 -32 41 -29 20 3
-16 24 -16 27 1 45 24 26 6 24 -23 -3 l-23 -21 0 41 c0 23 -4 42 -10 42 -6 0
-10 -28 -10 -65z"/>
<path d="M3568 3294 c-12 -11 -10 -124 2 -124 6 0 10 10 10 23 0 13 7 32 15
43 13 16 16 17 25 4 5 -8 10 -27 10 -42 0 -16 5 -28 10 -28 12 0 13 60 1 79
-5 8 -19 12 -34 9 -22 -4 -26 -1 -29 19 -2 14 -6 21 -10 17z"/>
<path d="M5200 3280 c0 -15 -7 -20 -24 -20 -28 0 -41 -28 -32 -66 6 -21 12
-24 41 -22 l35 2 0 63 c0 35 -4 63 -10 63 -5 0 -10 -9 -10 -20z m-5 -66 c0
-19 -5 -29 -15 -29 -16 0 -25 28 -16 51 10 25 31 10 31 -22z"/>
<path d="M5350 3284 c0 -8 5 -12 10 -9 6 4 8 11 5 16 -9 14 -15 11 -15 -7z"/>
<path d="M6365 3291 c-3 -5 -1 -12 5 -16 5 -3 10 1 10 9 0 18 -6 21 -15 7z"/>
<path d="M6510 3235 c0 -37 4 -65 10 -65 6 0 10 28 10 65 0 37 -4 65 -10 65
-6 0 -10 -28 -10 -65z"/>
<path d="M6760 3235 c0 -37 4 -65 10 -65 6 0 10 10 10 23 l1 22 18 -22 c26
-31 46 -30 26 1 -13 19 -14 29 -5 45 13 25 3 27 -22 4 -17 -15 -18 -14 -18 20
0 21 -4 37 -10 37 -6 0 -10 -28 -10 -65z"/>
<path d="M7910 3235 c0 -37 4 -65 10 -65 6 0 10 10 10 23 l1 22 18 -22 c11
-13 25 -23 32 -23 8 0 7 6 -4 18 -20 22 -22 43 -5 60 18 18 -3 14 -24 -5 -17
-15 -18 -14 -18 20 0 21 -4 37 -10 37 -6 0 -10 -28 -10 -65z"/>
<path d="M8176 3291 c-4 -5 -2 -12 3 -15 5 -4 12 -2 15 3 4 5 2 12 -3 15 -5 4
-12 2 -15 -3z"/>
<path d="M3774 3270 c-6 -6 -8 -29 -5 -53 5 -36 10 -42 31 -45 22 -2 23 -1 8
8 -11 7 -18 23 -18 40 0 22 5 30 18 31 13 0 14 2 2 6 -8 3 -18 10 -21 14 -3 5
-10 4 -15 -1z"/>
<path d="M7164 3270 c-6 -6 -8 -28 -5 -53 5 -36 10 -42 31 -45 22 -2 23 -1 8
8 -10 6 -18 22 -18 35 0 13 8 29 18 34 15 9 15 10 0 11 -9 0 -18 5 -20 10 -2
7 -7 7 -14 0z"/>
<path d="M773 3243 c-4 -11 1 -22 15 -31 28 -18 29 -36 2 -29 -11 3 -20 1 -20
-4 0 -5 11 -9 25 -9 35 0 45 29 17 48 -28 18 -29 36 -2 29 11 -3 20 -1 20 4 0
16 -50 10 -57 -8z"/>
<path d="M862 3248 c-15 -15 -15 -51 0 -66 14 -14 58 -16 58 -4 0 5 -10 8 -21
8 -12 -1 -24 5 -26 12 -3 8 6 12 26 12 19 0 31 5 31 13 0 18 -21 37 -40 37 -9
0 -21 -5 -28 -12z m46 -16 c2 -7 -6 -12 -17 -12 -21 0 -27 11 -14 24 9 9 26 2
31 -12z"/>
<path d="M950 3240 c0 -10 9 -24 20 -30 11 -6 20 -16 20 -22 0 -5 -9 -8 -20
-5 -11 3 -20 1 -20 -4 0 -5 11 -9 25 -9 35 0 45 29 17 48 -28 18 -29 35 -2 27
11 -4 20 -2 20 4 0 6 -13 11 -30 11 -23 0 -30 -4 -30 -20z"/>
<path d="M1042 3248 c-15 -15 -15 -51 0 -66 14 -14 58 -16 58 -4 0 5 -10 8
-21 8 -12 -1 -24 5 -26 12 -3 8 6 12 26 12 19 0 31 5 31 13 0 18 -21 37 -40
37 -9 0 -21 -5 -28 -12z m46 -16 c2 -7 -6 -12 -17 -12 -21 0 -27 11 -14 24 9
9 26 2 31 -12z"/>
<path d="M1131 3238 c-12 -31 2 -62 28 -66 28 -4 51 14 51 42 0 47 -63 66 -79
24z m54 -24 c0 -19 -5 -29 -15 -29 -16 0 -25 28 -16 51 10 25 31 10 31 -22z"/>
<path d="M1230 3213 c0 -23 5 -43 10 -43 6 0 10 14 10 31 0 22 5 32 20 36 30
8 24 22 -10 21 -29 -1 -30 -3 -30 -45z"/>
<path d="M1310 3250 c0 -5 8 -9 18 -7 26 3 27 -17 0 -23 -14 -4 -23 -13 -23
-25 0 -16 7 -20 38 -22 34 -1 37 1 37 27 0 46 -10 60 -41 60 -16 0 -29 -4 -29
-10z m48 -52 c-7 -19 -38 -22 -38 -4 0 10 9 16 21 16 12 0 19 -5 17 -12z"/>
<path d="M1400 3214 c0 -24 5 -44 10 -44 6 0 10 13 10 29 0 29 21 57 33 44 4
-3 7 -21 7 -40 0 -18 5 -33 11 -33 6 0 9 17 7 43 -3 41 -4 42 -40 44 l-38 1 0
-44z"/>
<path d="M1512 3247 c-6 -7 -7 -18 -2 -27 5 -7 4 -24 -1 -38 -14 -36 -4 -52
29 -52 38 0 60 24 42 45 -7 8 -22 15 -34 15 -20 0 -19 1 4 13 14 7 25 19 25
27 0 8 5 18 10 22 6 4 -6 8 -26 8 -20 0 -41 -6 -47 -13z m44 -8 c3 -6 1 -16
-5 -22 -9 -9 -14 -8 -21 3 -9 15 -4 30 10 30 5 0 12 -5 16 -11z m14 -78 c0 -9
-24 -21 -41 -21 -5 0 -9 7 -9 15 0 9 9 15 25 15 14 0 25 -4 25 -9z"/>
<path d="M1700 3214 c0 -24 5 -44 10 -44 6 0 10 13 10 29 0 29 21 57 33 44 4
-3 7 -21 7 -40 0 -45 18 -42 22 5 2 25 8 37 18 37 10 0 16 -12 18 -37 2 -21 8
-38 13 -38 6 0 9 19 7 43 l-3 42 -67 1 -68 1 0 -43z"/>
<path d="M1872 3248 c-29 -29 -7 -78 35 -78 13 0 23 4 23 8 0 5 -10 8 -21 8
-12 -1 -24 5 -26 12 -3 8 6 12 26 12 19 0 31 5 31 13 0 18 -21 37 -40 37 -9 0
-21 -5 -28 -12z m46 -16 c2 -7 -6 -12 -17 -12 -21 0 -27 11 -14 24 9 9 26 2
31 -12z"/>
<path d="M1960 3213 c0 -53 18 -57 22 -5 2 25 8 37 18 37 10 0 16 -12 18 -37
4 -48 22 -50 22 -4 0 19 5 38 11 42 16 10 30 -16 26 -48 -2 -16 0 -28 5 -28 4
0 8 20 8 45 l0 44 -65 -1 -65 -1 0 -44z"/>
<path d="M2120 3215 c0 -25 5 -45 10 -45 6 0 10 20 10 45 0 25 -4 45 -10 45
-5 0 -10 -20 -10 -45z"/>
<path d="M2223 3215 c0 -27 2 -38 4 -22 2 15 2 37 0 50 -2 12 -4 0 -4 -28z"/>
<path d="M2360 3215 c0 -25 5 -45 10 -45 6 0 10 20 10 45 0 25 -4 45 -10 45
-5 0 -10 -20 -10 -45z"/>
<path d="M2604 3234 c-9 -36 7 -59 42 -59 27 0 29 3 29 40 0 38 -2 40 -32 43
-28 3 -33 0 -39 -24z m51 -20 c0 -19 -5 -29 -15 -29 -16 0 -25 28 -16 51 10
25 31 10 31 -22z"/>
<path d="M2711 3210 c1 -44 1 -44 9 -12 15 66 49 65 50 0 0 -16 5 -28 10 -28
12 0 13 60 2 78 -5 7 -23 11 -40 10 -31 -2 -32 -4 -31 -48z"/>
<path d="M2920 3215 c0 -25 5 -45 10 -45 6 0 10 20 10 45 0 25 -4 45 -10 45
-5 0 -10 -20 -10 -45z"/>
<path d="M2964 3245 c-7 -18 3 -35 22 -35 8 0 14 -7 14 -16 0 -11 -6 -15 -20
-11 -11 3 -20 1 -20 -4 0 -5 13 -9 29 -9 44 0 50 38 9 53 -25 9 -23 31 2 24
11 -3 20 -1 20 4 0 15 -50 10 -56 -6z"/>
<path d="M3050 3215 c0 -25 5 -45 10 -45 6 0 10 20 10 45 0 25 -4 45 -10 45
-5 0 -10 -20 -10 -45z"/>
<path d="M3289 3239 c-18 -34 3 -69 41 -69 16 0 30 4 30 9 0 5 -8 7 -18 4 -10
-2 -24 3 -31 11 -12 14 -9 16 23 16 39 0 41 2 26 31 -14 26 -56 25 -71 -2z
m51 -4 c0 -8 -7 -15 -15 -15 -16 0 -20 12 -8 23 11 12 23 8 23 -8z"/>
<path d="M3387 3253 c-14 -13 -6 -30 19 -41 28 -13 23 -37 -7 -29 -11 3 -19 1
-19 -5 0 -5 15 -8 32 -6 42 4 50 33 14 49 -31 14 -35 34 -6 26 11 -3 20 -1 20
4 0 10 -43 12 -53 2z"/>
<path d="M3470 3239 c-19 -34 2 -69 40 -69 16 0 30 4 30 9 0 5 -8 7 -18 4 -10
-2 -24 3 -31 11 -12 14 -9 16 18 16 28 0 32 3 29 23 -4 32 -52 36 -68 6z m48
-7 c2 -7 -3 -12 -12 -12 -9 0 -16 7 -16 16 0 17 22 14 28 -4z"/>
<path d="M3680 3252 c0 -6 9 -8 20 -5 14 4 20 0 20 -11 0 -10 -9 -16 -25 -16
-20 0 -25 -5 -25 -25 0 -23 4 -25 35 -23 35 2 36 3 33 43 -3 35 -6 40 -30 43
-16 2 -28 -1 -28 -6z m38 -54 c-6 -18 -28 -21 -28 -4 0 9 7 16 16 16 9 0 14
-5 12 -12z"/>
<path d="M3840 3250 c0 -5 8 -9 18 -7 26 3 27 -17 0 -23 -14 -4 -23 -13 -23
-25 0 -16 7 -20 38 -22 34 -1 37 1 37 27 0 46 -10 60 -41 60 -16 0 -29 -4 -29
-10z m48 -52 c-3 -7 -11 -13 -18 -13 -7 0 -15 6 -17 13 -3 7 4 12 17 12 13 0
20 -5 18 -12z"/>
<path d="M3930 3214 c0 -24 5 -44 10 -44 6 0 10 13 10 29 0 29 21 57 33 44 4
-3 7 -21 7 -40 0 -18 5 -33 11 -33 6 0 9 17 7 43 -3 41 -4 42 -40 44 l-38 1 0
-44z"/>
<path d="M4130 3256 c0 -2 7 -20 15 -39 8 -20 15 -43 15 -52 0 -8 -7 -15 -15
-15 -8 0 -15 -4 -15 -10 0 -14 26 -12 37 3 5 6 19 36 31 65 16 40 18 52 7 52
-7 0 -17 -15 -21 -32 l-7 -33 -15 33 c-13 26 -32 43 -32 28z"/>
<path d="M4240 3252 c0 -6 9 -8 20 -5 14 4 20 0 20 -11 0 -10 -9 -16 -24 -16
-26 0 -39 -19 -27 -39 4 -6 22 -10 40 -9 31 2 32 4 29 43 -3 35 -6 40 -30 43
-16 2 -28 -1 -28 -6z m38 -54 c-6 -18 -28 -21 -28 -4 0 9 7 16 16 16 9 0 14
-5 12 -12z"/>
<path d="M4330 3216 c0 -55 17 -62 22 -8 2 25 8 37 18 37 10 0 16 -12 18 -37
2 -21 8 -38 13 -38 6 0 9 19 7 43 -3 41 -4 42 -40 45 l-38 3 0 -45z"/>
<path d="M4435 3250 c-4 -6 -4 -24 0 -41 4 -18 2 -36 -5 -44 -23 -28 19 -46
64 -29 29 11 19 44 -16 51 -31 6 -32 7 -9 13 16 3 27 15 32 33 7 25 5 27 -26
27 -19 0 -37 -5 -40 -10z m43 -17 c-4 -22 -22 -20 -26 1 -2 10 3 16 13 16 10
0 15 -7 13 -17z m12 -72 c0 -6 -5 -13 -10 -16 -15 -9 -43 3 -35 15 8 13 45 13
45 1z"/>
<path d="M4630 3215 c0 -25 5 -45 10 -45 6 0 10 15 10 34 0 38 17 57 31 35 5
-8 9 -26 9 -41 0 -41 18 -34 22 7 2 20 8 35 13 35 6 0 11 -15 13 -35 2 -19 8
-35 13 -35 6 0 9 19 7 43 l-3 42 -62 3 -63 2 0 -45z"/>
<path d="M4789 3239 c-18 -34 3 -69 41 -69 16 0 30 4 30 9 0 5 -8 7 -18 4 -10
-2 -24 3 -31 11 -12 14 -9 16 23 16 39 0 41 2 26 31 -14 26 -56 25 -71 -2z
m51 -4 c0 -8 -7 -15 -15 -15 -16 0 -20 12 -8 23 11 12 23 8 23 -8z"/>
<path d="M4890 3213 c0 -53 18 -57 22 -5 2 20 8 37 13 37 6 0 11 -17 13 -37 4
-44 22 -52 22 -9 0 29 21 57 33 44 4 -3 7 -21 7 -40 0 -18 5 -33 11 -33 6 0 9
17 7 43 l-3 42 -62 1 -63 1 0 -44z"/>
<path d="M5050 3251 c0 -6 8 -10 18 -8 26 3 27 -17 0 -23 -14 -4 -23 -13 -23
-25 0 -16 7 -20 38 -22 l38 -1 -3 41 c-3 39 -5 42 -35 45 -19 2 -33 -1 -33 -7z
m48 -53 c-3 -7 -11 -13 -18 -13 -7 0 -15 6 -17 13 -3 7 4 12 17 12 13 0 20 -5
18 -12z"/>
<path d="M5260 3252 c0 -5 7 -9 16 -8 30 2 27 -22 -3 -26 -20 -2 -28 -9 -28
-23 0 -16 7 -20 38 -22 l38 -1 -3 41 c-3 37 -6 42 -30 45 -16 2 -28 -1 -28 -6z
m40 -51 c0 -14 -18 -23 -30 -16 -6 4 -8 11 -5 16 8 12 35 12 35 0z"/>
<path d="M5350 3215 c0 -25 5 -45 10 -45 6 0 10 20 10 45 0 25 -4 45 -10 45
-5 0 -10 -20 -10 -45z"/>
<path d="M5495 3248 c-3 -7 -3 -26 -2 -43 2 -16 -1 -35 -6 -42 -19 -26 24 -44
67 -27 29 11 19 43 -16 52 l-33 8 26 7 c18 5 28 15 31 32 5 23 2 25 -29 25
-18 0 -36 -6 -38 -12z m43 -15 c-4 -22 -22 -20 -26 1 -2 10 3 16 13 16 10 0
15 -7 13 -17z m10 -75 c-3 -7 -13 -13 -23 -13 -10 0 -20 6 -22 13 -3 7 5 12
22 12 17 0 25 -5 23 -12z"/>
<path d="M5592 3218 c3 -42 4 -43 41 -45 l37 -1 0 44 c0 24 -4 44 -10 44 -5 0
-10 -13 -10 -29 0 -29 -21 -57 -33 -44 -4 3 -7 21 -7 40 0 18 -5 33 -11 33 -6
0 -9 -17 -7 -42z"/>
<path d="M5690 3214 c0 -24 5 -44 10 -44 6 0 10 13 10 29 0 29 21 57 33 44 4
-3 7 -21 7 -40 0 -18 5 -33 11 -33 6 0 9 17 7 43 -3 41 -4 42 -40 44 l-38 1 0
-44z"/>
<path d="M5810 3252 c0 -6 9 -8 20 -5 14 4 20 0 20 -11 0 -10 -9 -16 -24 -16
-26 0 -39 -19 -27 -39 4 -6 22 -10 40 -9 31 2 32 4 29 43 -3 35 -6 40 -30 43
-16 2 -28 -1 -28 -6z m40 -51 c0 -14 -18 -23 -30 -16 -6 4 -8 11 -5 16 8 12
35 12 35 0z"/>
<path d="M6000 3215 c0 -25 5 -45 10 -45 6 0 10 15 10 34 0 38 17 57 31 35 5
-8 9 -26 9 -41 0 -41 18 -34 22 7 2 20 8 35 13 35 6 0 11 -15 13 -35 2 -19 8
-35 13 -35 6 0 9 19 7 43 l-3 42 -62 3 -63 2 0 -45z"/>
<path d="M6160 3239 c-19 -34 2 -69 40 -69 16 0 30 4 30 8 0 5 -10 8 -21 8
-12 -1 -24 5 -26 12 -3 7 5 12 22 12 22 0 26 4 23 23 -4 32 -52 36 -68 6z m50
-4 c0 -8 -7 -15 -15 -15 -16 0 -20 12 -8 23 11 12 23 8 23 -8z"/>
<path d="M6260 3213 c0 -53 18 -57 22 -5 2 25 8 37 18 37 10 0 16 -12 18 -37
4 -46 22 -51 22 -5 0 45 -12 58 -48 55 -31 -2 -32 -4 -32 -45z"/>
<path d="M6360 3206 c0 -34 -5 -56 -12 -59 -7 -2 -10 -8 -6 -12 4 -4 14 -5 23
-2 11 5 15 22 15 67 0 33 -4 60 -10 60 -5 0 -10 -24 -10 -54z"/>
<path d="M6420 3252 c0 -5 7 -9 16 -8 9 0 19 -5 21 -11 3 -8 -5 -13 -20 -13
-26 0 -40 -19 -28 -39 4 -6 22 -10 40 -9 31 2 32 4 29 43 -3 35 -6 40 -30 43
-16 2 -28 -1 -28 -6z m40 -51 c0 -14 -18 -23 -30 -16 -6 4 -8 11 -5 16 8 12
35 12 35 0z"/>
<path d="M6560 3252 c0 -5 9 -8 20 -8 27 1 26 -18 -2 -24 -14 -4 -23 -13 -23
-25 0 -16 7 -20 38 -22 34 -1 37 1 37 27 0 46 -10 60 -41 60 -16 0 -29 -4 -29
-8z m40 -57 c-7 -8 -16 -15 -21 -15 -5 0 -9 7 -9 15 0 9 9 15 21 15 18 0 19
-2 9 -15z"/>
<path d="M6650 3214 c0 -24 5 -44 10 -44 6 0 10 13 10 29 0 29 21 57 33 44 4
-3 7 -21 7 -40 0 -18 5 -33 11 -33 6 0 9 17 7 43 -3 41 -4 42 -40 44 l-38 1 0
-44z"/>
<path d="M6860 3250 c0 -5 8 -9 18 -7 26 3 27 -17 0 -23 -14 -4 -23 -13 -23
-25 0 -16 7 -20 38 -22 34 -1 37 1 37 27 0 46 -10 60 -41 60 -16 0 -29 -4 -29
-10z m43 -55 c-6 -17 -25 -15 -31 3 -2 7 5 12 17 12 14 0 19 -5 14 -15z"/>
<path d="M6950 3214 c0 -24 5 -44 10 -44 6 0 10 13 10 29 0 29 21 57 33 44 4
-3 7 -21 7 -40 0 -18 5 -33 11 -33 6 0 9 17 7 43 -3 41 -4 42 -40 44 l-38 1 0
-44z"/>
<path d="M7232 3218 c3 -42 4 -43 41 -45 l37 -1 0 44 c0 24 -4 44 -10 44 -5 0
-10 -13 -10 -29 0 -29 -21 -57 -33 -44 -4 3 -7 21 -7 40 0 18 -5 33 -11 33 -6
0 -9 -17 -7 -42z"/>
<path d="M7335 3248 c-3 -7 -4 -26 -2 -43 2 -24 7 -31 30 -33 30 -4 36 -19 11
-29 -10 -4 -22 1 -30 12 -15 21 -30 14 -21 -10 6 -15 42 -20 71 -9 29 11 19
43 -16 52 l-33 8 26 7 c18 5 28 15 31 32 5 23 2 25 -29 25 -18 0 -36 -6 -38
-12z m43 -15 c-4 -22 -22 -20 -26 1 -2 10 3 16 13 16 10 0 15 -7 13 -17z"/>
<path d="M7430 3251 c0 -6 8 -10 18 -8 26 3 27 -17 0 -23 -14 -4 -23 -13 -23
-25 0 -16 7 -20 38 -22 l38 -1 -3 41 c-3 39 -5 42 -35 45 -19 2 -33 -1 -33 -7z
m48 -53 c-3 -7 -11 -13 -18 -13 -7 0 -15 6 -17 13 -3 7 4 12 17 12 13 0 20 -5
18 -12z"/>
<path d="M7527 3253 c-15 -14 -6 -34 19 -43 28 -11 23 -35 -7 -27 -11 3 -19 1
-19 -4 0 -5 13 -9 29 -9 44 0 50 38 9 53 -25 9 -23 31 2 24 11 -3 20 -1 20 4
0 10 -43 12 -53 2z"/>
<path d="M7710 3193 c0 -35 4 -63 10 -63 6 0 10 9 10 20 0 13 7 20 18 20 24 0
42 19 42 46 0 28 -21 45 -54 42 -25 -2 -26 -4 -26 -65z m55 21 c0 -19 -5 -29
-15 -29 -16 0 -25 28 -16 51 10 25 31 10 31 -22z"/>
<path d="M7814 3246 c-3 -8 -4 -27 -2 -43 2 -24 8 -28 36 -31 17 -2 32 1 32 6
0 5 -10 8 -21 8 -12 -1 -24 5 -26 12 -3 8 6 12 26 12 32 0 41 16 19 38 -16 16
-57 15 -64 -2z m51 -6 c3 -6 -1 -13 -10 -16 -19 -8 -30 0 -20 15 8 14 22 14
30 1z"/>
<path d="M8012 3248 c-29 -29 -7 -78 34 -78 13 0 25 4 29 9 3 6 -7 9 -21 8
-15 -1 -29 4 -31 11 -3 8 6 12 26 12 31 0 36 6 25 34 -7 19 -45 21 -62 4z m46
-16 c2 -7 -6 -12 -17 -12 -21 0 -27 11 -14 24 9 9 26 2 31 -12z"/>
<path d="M8100 3213 c0 -23 5 -43 10 -43 6 0 10 13 10 29 0 18 8 34 23 44 22
15 22 15 -10 15 -32 -1 -33 -2 -33 -45z"/>
<path d="M8170 3206 c0 -34 -5 -56 -12 -59 -7 -2 -10 -8 -6 -12 4 -4 14 -5 23
-2 11 5 15 22 15 67 0 33 -4 60 -10 60 -5 0 -10 -24 -10 -54z"/>
<path d="M8230 3252 c0 -6 9 -8 20 -5 14 4 20 0 20 -11 0 -10 -9 -16 -24 -16
-26 0 -39 -19 -27 -39 4 -6 22 -10 40 -9 31 2 32 4 29 43 -3 35 -6 40 -30 43
-16 2 -28 -1 -28 -6z m38 -54 c-6 -18 -28 -21 -28 -4 0 9 7 16 16 16 9 0 14
-5 12 -12z"/>
<path d="M8330 3252 c0 -5 6 -9 13 -8 22 2 19 -19 -5 -24 -14 -4 -23 -13 -23
-25 0 -16 7 -20 38 -22 l38 -1 -3 41 c-3 37 -6 42 -30 45 -16 2 -28 -1 -28 -6z
m40 -51 c0 -14 -18 -23 -30 -16 -6 4 -8 11 -5 16 8 12 35 12 35 0z"/>
<path d="M8420 3213 c0 -53 18 -57 22 -5 2 25 8 37 18 37 10 0 16 -12 18 -37
4 -46 22 -51 22 -5 0 45 -12 58 -48 55 -31 -2 -32 -4 -32 -45z"/>
<path d="M1940 3067 c0 -20 -4 -23 -25 -20 -19 4 -27 0 -36 -20 -17 -38 2 -67
46 -65 l35 1 0 58 c0 32 -4 61 -10 64 -6 3 -10 -4 -10 -18z m-6 -75 c-13 -20
-25 -20 -38 1 -7 10 -5 21 4 32 12 15 15 15 29 0 12 -12 13 -19 5 -33z"/>
<path d="M2348 3071 c-8 -11 -12 -37 -10 -65 5 -53 22 -63 22 -11 0 22 6 38
18 44 16 10 15 10 -3 11 -19 1 -19 1 -2 14 21 16 22 26 3 26 -8 0 -21 -8 -28
-19z"/>
<path d="M2500 3025 c0 -37 4 -65 10 -65 6 0 10 10 10 23 l1 22 18 -22 c11
-13 25 -23 32 -23 8 0 7 6 -4 18 -20 22 -22 43 -5 60 18 18 -3 14 -24 -5 -17
-15 -18 -14 -18 20 0 21 -4 37 -10 37 -6 0 -10 -28 -10 -65z"/>
<path d="M2718 3071 c-8 -11 -12 -37 -10 -65 5 -52 22 -63 22 -13 0 18 5 38
12 45 9 9 9 12 0 12 -7 0 -12 5 -12 10 0 6 7 10 15 10 8 0 15 5 15 10 0 17
-28 11 -42 -9z"/>
<path d="M3450 3025 c0 -37 4 -65 10 -65 6 0 10 10 10 23 l1 22 18 -22 c26
-31 46 -30 26 1 -13 19 -14 29 -5 45 15 28 -5 27 -24 -1 -16 -22 -16 -21 -16
20 0 23 -4 42 -10 42 -6 0 -10 -28 -10 -65z"/>
<path d="M4300 3067 c0 -18 -5 -23 -27 -22 -26 0 -28 -3 -28 -40 0 -39 1 -40
38 -42 l37 -1 0 64 c0 36 -4 64 -10 64 -5 0 -10 -10 -10 -23z m-5 -63 c0 -19
-5 -29 -15 -29 -16 0 -25 28 -16 51 10 25 31 10 31 -22z"/>
<path d="M4910 3025 c0 -37 4 -65 10 -65 6 0 10 10 11 23 l0 22 16 -22 c8 -13
22 -23 30 -23 11 0 10 6 -6 27 -20 24 -20 27 -5 45 21 22 7 24 -18 1 -17 -15
-18 -14 -18 20 0 21 -4 37 -10 37 -6 0 -10 -28 -10 -65z"/>
<path d="M5320 3071 c0 -12 -8 -21 -21 -23 -29 -4 -43 -29 -35 -61 5 -23 12
-27 41 -27 l35 0 0 65 c0 37 -4 65 -10 65 -5 0 -10 -9 -10 -19z m-5 -67 c0
-19 -5 -29 -15 -29 -16 0 -25 28 -16 51 10 25 31 10 31 -22z"/>
<path d="M6572 3025 c-1 -56 1 -65 9 -45 l10 25 19 -25 c10 -14 22 -21 26 -17
4 4 -1 16 -11 27 -17 19 -17 21 0 40 10 11 14 20 8 20 -5 0 -18 -10 -29 -21
l-19 -21 -6 43 c-5 37 -6 33 -7 -26z"/>
<path d="M2665 3070 c3 -5 8 -10 11 -10 2 0 4 5 4 10 0 6 -5 10 -11 10 -5 0
-7 -4 -4 -10z"/>
<path d="M2870 3020 c0 -33 4 -60 10 -60 6 0 10 8 10 18 0 10 12 22 30 29 22
8 30 18 30 36 0 26 -16 37 -56 37 -23 0 -24 -3 -24 -60z m58 23 c-5 -26 -38
-29 -38 -4 0 15 6 21 21 21 14 0 19 -5 17 -17z"/>
<path d="M3405 3070 c3 -5 8 -10 11 -10 2 0 4 5 4 10 0 6 -5 10 -11 10 -5 0
-7 -4 -4 -10z"/>
<path d="M3985 3070 c4 -6 11 -8 16 -5 14 9 11 15 -7 15 -8 0 -12 -5 -9 -10z"/>
<path d="M4140 3069 c0 -5 5 -7 10 -4 6 3 10 8 10 11 0 2 -4 4 -10 4 -5 0 -10
-5 -10 -11z"/>
<path d="M4350 3069 c0 -5 5 -7 10 -4 6 3 10 8 10 11 0 2 -4 4 -10 4 -5 0 -10
-5 -10 -11z"/>
<path d="M4865 3070 c3 -5 8 -10 11 -10 2 0 4 5 4 10 0 6 -5 10 -11 10 -5 0
-7 -4 -4 -10z"/>
<path d="M5930 3069 c0 -5 5 -7 10 -4 6 3 10 8 10 11 0 2 -4 4 -10 4 -5 0 -10
-5 -10 -11z"/>
<path d="M6180 3069 c0 -5 5 -7 10 -4 6 3 10 8 10 11 0 2 -4 4 -10 4 -5 0 -10
-5 -10 -11z"/>
<path d="M6835 3070 c3 -5 8 -10 11 -10 2 0 4 5 4 10 0 6 -5 10 -11 10 -5 0
-7 -4 -4 -10z"/>
<path d="M7745 3070 c3 -5 8 -10 11 -10 2 0 4 5 4 10 0 6 -5 10 -11 10 -5 0
-7 -4 -4 -10z"/>
<path d="M8275 3070 c4 -6 11 -8 16 -5 14 9 11 15 -7 15 -8 0 -12 -5 -9 -10z"/>
<path d="M2598 3058 c-3 -7 -3 -32 0 -55 3 -36 8 -43 26 -42 11 0 15 3 9 6
-16 6 -17 73 -2 73 6 0 4 7 -5 15 -18 18 -23 19 -28 3z"/>
<path d="M8088 3058 c-3 -7 -3 -32 0 -55 3 -36 8 -43 26 -42 11 0 15 3 9 6
-16 6 -17 73 -2 73 6 0 4 7 -5 15 -18 18 -23 19 -28 3z"/>
<path d="M8208 3059 c-2 -7 -1 -30 2 -53 4 -35 9 -41 30 -44 22 -2 23 -1 8 8
-11 6 -18 23 -18 40 0 19 6 30 18 33 16 4 16 5 0 6 -10 0 -18 6 -18 11 0 14
-17 13 -22 -1z"/>
<path d="M773 3033 c-4 -11 1 -22 15 -31 28 -18 29 -36 2 -29 -11 3 -20 1 -20
-4 0 -5 11 -9 25 -9 35 0 45 29 17 48 -28 18 -29 35 -2 27 11 -4 20 -2 20 4 0
18 -50 13 -57 -6z"/>
<path d="M862 3038 c-15 -15 -15 -51 0 -66 14 -14 58 -16 58 -4 0 5 -10 8 -21
8 -12 -1 -24 5 -26 12 -3 8 6 12 26 12 19 0 31 5 31 13 0 18 -21 37 -40 37 -9
0 -21 -5 -28 -12z m46 -16 c2 -7 -6 -12 -17 -12 -21 0 -27 11 -14 24 9 9 26 2
31 -12z"/>
<path d="M954 3036 c-3 -8 -4 -27 -2 -43 2 -22 9 -29 31 -31 15 -2 27 1 27 6
0 5 -8 9 -17 8 -14 -1 -18 7 -18 29 0 22 4 30 18 29 9 -1 17 2 17 7 0 15 -50
10 -56 -5z"/>
<path d="M1040 3040 c0 -5 8 -9 18 -7 26 3 27 -17 0 -23 -14 -4 -23 -13 -23
-25 0 -16 7 -20 38 -22 34 -1 37 1 37 27 0 46 -10 60 -41 60 -16 0 -29 -4 -29
-10z m44 -55 c-4 -8 -12 -15 -20 -15 -8 0 -14 7 -14 15 0 8 9 15 20 15 13 0
18 -5 14 -15z"/>
<path d="M1130 3003 c0 -23 5 -43 10 -43 6 0 10 14 10 31 0 22 5 32 20 36 30
8 24 22 -10 21 -29 -1 -30 -3 -30 -45z"/>
<path d="M1210 3040 c0 -5 8 -9 18 -7 26 3 27 -17 0 -23 -14 -4 -23 -13 -23
-25 0 -16 7 -20 38 -22 34 -1 37 1 37 27 0 46 -10 60 -41 60 -16 0 -29 -4 -29
-10z m44 -55 c-4 -8 -12 -15 -20 -15 -8 0 -14 7 -14 15 0 8 9 15 20 15 13 0
18 -5 14 -15z"/>
<path d="M1370 3042 c0 -5 7 -9 16 -8 30 2 27 -22 -3 -26 -20 -2 -28 -9 -28
-23 0 -16 7 -20 38 -22 l38 -1 -3 41 c-3 37 -6 42 -30 45 -16 2 -28 -1 -28 -6z
m40 -51 c0 -14 -18 -23 -30 -16 -6 4 -8 11 -5 16 8 12 35 12 35 0z"/>
<path d="M1460 3003 c0 -53 18 -57 22 -5 2 20 8 37 13 37 6 0 11 -17 13 -37 4
-44 22 -52 22 -9 0 29 21 57 33 44 4 -3 7 -21 7 -40 0 -18 5 -33 11 -33 6 0 9
17 7 43 l-3 42 -62 1 -63 1 0 -44z"/>
<path d="M1620 3041 c0 -6 8 -10 18 -8 26 3 27 -17 0 -23 -14 -4 -23 -13 -23
-25 0 -16 7 -20 38 -22 l38 -1 -3 41 c-3 39 -5 42 -35 45 -19 2 -33 -1 -33 -7z
m48 -53 c-3 -7 -11 -13 -18 -13 -7 0 -15 6 -17 13 -3 7 4 12 17 12 13 0 20 -5
18 -12z"/>
<path d="M1710 3004 c0 -24 5 -44 10 -44 6 0 10 9 10 21 0 11 5 29 11 40 14
28 39 7 39 -32 0 -16 4 -29 8 -29 5 0 6 19 3 43 -6 41 -7 42 -43 44 l-38 1 0
-44z"/>
<path d="M1990 3042 c0 -6 9 -8 20 -5 14 4 20 0 20 -10 0 -9 -10 -17 -22 -19
-15 -2 -24 -11 -26 -26 -3 -20 0 -22 33 -20 36 2 36 3 33 43 -3 35 -6 40 -30
43 -16 2 -28 -1 -28 -6z m38 -54 c-6 -18 -28 -21 -28 -4 0 9 7 16 16 16 9 0
14 -5 12 -12z"/>
<path d="M2080 3004 c0 -24 5 -44 10 -44 6 0 10 15 10 34 0 20 6 36 14 39 20
8 26 -2 26 -40 0 -18 5 -33 11 -33 6 0 9 17 7 43 -3 41 -4 42 -40 44 l-38 1 0
-44z"/>
<path d="M2252 3038 c-29 -29 -7 -78 35 -78 13 0 23 4 23 8 0 5 -10 8 -21 8
-12 -1 -24 5 -26 12 -3 8 6 12 26 12 19 0 31 5 31 13 0 18 -21 37 -40 37 -9 0
-21 -5 -28 -12z m46 -16 c2 -7 -6 -12 -17 -12 -21 0 -27 11 -14 24 9 9 26 2
31 -12z"/>
<path d="M2404 3036 c-3 -8 -4 -27 -2 -43 2 -24 8 -28 36 -31 17 -2 32 1 32 6
0 5 -10 8 -21 8 -12 -1 -24 5 -26 12 -3 8 6 12 26 12 34 0 36 2 21 31 -12 22
-58 26 -66 5z m51 -6 c3 -6 -1 -13 -10 -16 -19 -8 -30 0 -20 15 8 14 22 14 30
1z"/>
<path d="M2660 3005 c0 -25 5 -45 10 -45 6 0 10 20 10 45 0 25 -4 45 -10 45
-5 0 -10 -20 -10 -45z"/>
<path d="M2982 3038 c-7 -7 -12 -21 -12 -33 0 -12 5 -26 12 -33 14 -14 68 -16
68 -3 0 6 -12 9 -26 8 -15 -1 -29 4 -31 11 -3 8 6 12 26 12 19 0 31 5 31 13 0
18 -21 37 -40 37 -9 0 -21 -5 -28 -12z m46 -16 c2 -7 -6 -12 -17 -12 -21 0
-27 11 -14 24 9 9 26 2 31 -12z"/>
<path d="M3070 3003 c0 -23 5 -43 10 -43 6 0 10 13 10 29 0 29 21 57 33 44 4
-3 7 -21 7 -40 0 -18 5 -33 10 -33 6 0 10 15 10 34 0 38 17 57 31 35 5 -8 9
-26 9 -41 0 -16 5 -28 10 -28 12 0 13 59 2 77 -4 7 -32 11 -70 11 l-62 -1 0
-44z"/>
<path d="M3242 3038 c-29 -29 -7 -78 35 -78 13 0 23 4 23 8 0 5 -10 8 -21 8
-12 -1 -24 5 -26 12 -3 8 6 12 26 12 19 0 31 5 31 13 0 18 -21 37 -40 37 -9 0
-21 -5 -28 -12z m46 -16 c2 -7 -6 -12 -17 -12 -21 0 -27 11 -14 24 9 9 26 2
31 -12z"/>
<path d="M3330 3004 c0 -24 5 -44 10 -44 6 0 10 14 10 30 0 18 6 33 15 36 23
9 18 22 -10 22 -23 0 -25 -4 -25 -44z"/>
<path d="M3400 3005 c0 -25 5 -45 10 -45 6 0 10 20 10 45 0 25 -4 45 -10 45
-5 0 -10 -20 -10 -45z"/>
<path d="M3547 3043 c-15 -14 -6 -34 19 -43 28 -11 23 -35 -7 -27 -11 3 -19 1
-19 -5 0 -5 15 -8 32 -6 42 4 51 34 14 48 -31 11 -35 35 -6 27 11 -3 20 -1 20
4 0 10 -43 12 -53 2z"/>
<path d="M3630 3041 c0 -6 8 -10 18 -8 26 3 27 -17 0 -23 -14 -4 -23 -13 -23
-25 0 -16 7 -20 38 -22 l38 -1 -3 41 c-3 39 -5 42 -35 45 -19 2 -33 -1 -33 -7z
m50 -50 c0 -14 -18 -23 -30 -16 -6 4 -8 11 -5 16 8 12 35 12 35 0z"/>
<path d="M3730 3040 c0 -5 8 -9 18 -7 26 3 27 -17 0 -23 -14 -4 -23 -13 -23
-25 0 -16 7 -20 38 -22 34 -1 37 1 37 27 0 46 -10 60 -41 60 -16 0 -29 -4 -29
-10z m44 -55 c-4 -8 -12 -15 -20 -15 -8 0 -14 7 -14 15 0 8 9 15 20 15 13 0
18 -5 14 -15z"/>
<path d="M3820 3004 c0 -24 5 -44 10 -44 6 0 10 13 10 29 0 29 21 57 33 44 4
-3 7 -21 7 -40 0 -18 5 -33 11 -33 6 0 9 17 7 43 -3 41 -4 42 -40 44 l-38 1 0
-44z"/>
<path d="M3990 3005 c0 -25 5 -45 10 -45 6 0 10 20 10 45 0 25 -4 45 -10 45
-5 0 -10 -20 -10 -45z"/>
<path d="M4030 3004 c0 -24 5 -44 10 -44 6 0 10 13 10 29 0 29 21 57 33 44 4
-3 7 -21 7 -40 0 -18 5 -33 11 -33 6 0 9 17 7 43 -3 41 -4 42 -40 44 l-38 1 0
-44z"/>
<path d="M4140 3005 c0 -25 5 -45 10 -45 6 0 10 20 10 45 0 25 -4 45 -10 45
-5 0 -10 -20 -10 -45z"/>
<path d="M4350 3005 c0 -25 5 -45 10 -45 6 0 10 20 10 45 0 25 -4 45 -10 45
-5 0 -10 -20 -10 -45z"/>
<path d="M4397 3043 c-15 -14 -6 -34 19 -43 28 -11 23 -35 -7 -27 -11 3 -19 1
-19 -4 0 -5 13 -9 29 -9 44 0 50 38 9 53 -25 9 -23 31 2 24 11 -3 20 -1 20 4
0 10 -43 12 -53 2z"/>
<path d="M4478 3025 c-8 -19 -9 -31 -1 -43 11 -18 73 -30 73 -14 0 6 -8 8 -18
5 -10 -2 -24 3 -31 11 -12 14 -9 16 18 16 28 0 32 3 29 23 -5 35 -54 36 -70 2z
m50 -3 c2 -7 -6 -12 -17 -12 -21 0 -27 11 -14 24 9 9 26 2 31 -12z"/>
<path d="M4577 3043 c-15 -14 -6 -34 19 -43 28 -11 23 -35 -7 -27 -11 3 -19 1
-19 -4 0 -5 14 -9 30 -9 23 0 30 4 30 20 0 10 -9 24 -20 30 -11 6 -20 16 -20
22 0 5 9 8 20 5 11 -3 20 -1 20 4 0 10 -43 12 -53 2z"/>
<path d="M4661 3008 l-1 -48 40 2 40 1 0 44 c0 23 -4 43 -10 43 -5 0 -10 -10
-10 -23 0 -27 -25 -65 -36 -55 -4 4 -10 25 -14 45 l-8 38 -1 -47z"/>
<path d="M4770 3042 c0 -6 9 -8 20 -5 14 4 20 0 20 -10 0 -9 -10 -17 -22 -19
-15 -2 -24 -11 -26 -26 -3 -20 0 -22 33 -20 36 2 36 3 33 43 -3 35 -6 40 -30
43 -16 2 -28 -1 -28 -6z m38 -54 c-6 -18 -28 -21 -28 -4 0 9 7 16 16 16 9 0
14 -5 12 -12z"/>
<path d="M4860 3005 c0 -25 5 -45 10 -45 6 0 10 20 10 45 0 25 -4 45 -10 45
-5 0 -10 -20 -10 -45z"/>
<path d="M5010 3040 c0 -7 8 -9 20 -5 14 4 20 2 20 -9 0 -8 -10 -16 -22 -18
-15 -2 -23 -10 -23 -23 0 -16 7 -20 36 -21 l35 -2 -5 42 c-5 36 -10 41 -33 44
-16 2 -28 -2 -28 -8z m38 -52 c-6 -18 -28 -21 -28 -4 0 9 7 16 16 16 9 0 14
-5 12 -12z"/>
<path d="M5100 3004 c0 -24 5 -44 10 -44 6 0 10 15 10 34 0 20 6 36 14 39 20
8 26 -2 26 -40 0 -18 5 -33 11 -33 6 0 9 17 7 43 -3 41 -4 42 -40 44 l-38 1 0
-44z"/>
<path d="M5370 3029 c-19 -34 2 -69 40 -69 16 0 30 4 30 8 0 5 -10 8 -21 8
-12 -1 -24 5 -26 12 -3 8 6 12 26 12 27 0 30 2 22 23 -11 31 -56 35 -71 6z
m50 -4 c0 -8 -7 -15 -15 -15 -16 0 -20 12 -8 23 11 12 23 8 23 -8z"/>
<path d="M5470 3003 c0 -53 18 -57 22 -5 2 25 8 37 18 37 10 0 16 -12 18 -37
4 -46 22 -51 22 -5 0 45 -12 58 -48 55 -31 -2 -32 -4 -32 -45z"/>
<path d="M5575 3038 c-3 -7 -4 -26 -2 -43 2 -24 7 -31 30 -33 30 -4 36 -19 11
-29 -10 -4 -22 1 -30 12 -15 21 -30 14 -21 -10 8 -18 58 -20 75 -3 21 21 13
37 -20 46 l-33 8 26 7 c18 5 28 15 31 32 5 23 2 25 -29 25 -18 0 -36 -6 -38
-12z m43 -15 c-4 -22 -22 -20 -26 1 -2 10 3 16 13 16 10 0 15 -7 13 -17z"/>
<path d="M5670 3041 c0 -6 8 -10 18 -8 26 3 27 -17 0 -23 -14 -4 -23 -13 -23
-25 0 -16 7 -20 38 -22 l38 -1 -3 41 c-3 39 -5 42 -35 45 -19 2 -33 -1 -33 -7z
m48 -53 c-3 -7 -11 -13 -18 -13 -7 0 -15 6 -17 13 -3 7 4 12 17 12 13 0 20 -5
18 -12z"/>
<path d="M5760 3004 c0 -24 5 -44 10 -44 6 0 10 13 10 29 0 29 21 57 33 44 4
-3 7 -21 7 -40 0 -18 5 -33 11 -33 6 0 9 17 7 43 -3 41 -4 42 -40 44 l-38 1 0
-44z"/>
<path d="M5930 2995 c0 -41 -4 -57 -17 -65 -16 -9 -15 -10 7 -8 23 3 25 7 28
66 2 38 -1 62 -8 62 -6 0 -10 -23 -10 -55z"/>
<path d="M5982 3038 c-29 -29 -7 -78 34 -78 13 0 25 4 29 9 3 6 -7 9 -21 8
-15 -1 -29 4 -31 11 -3 8 6 12 26 12 19 0 31 5 31 13 0 18 -21 37 -40 37 -9 0
-21 -5 -28 -12z m46 -16 c2 -7 -6 -12 -17 -12 -21 0 -27 11 -14 24 9 9 26 2
31 -12z"/>
<path d="M6070 3004 c0 -24 5 -44 10 -44 6 0 10 15 10 34 0 20 6 36 14 39 20
8 26 -2 26 -40 0 -18 5 -33 11 -33 6 0 9 17 7 43 -3 41 -4 42 -40 44 l-38 1 0
-44z"/>
<path d="M6180 3005 c0 -25 5 -45 10 -45 6 0 10 20 10 45 0 25 -4 45 -10 45
-5 0 -10 -20 -10 -45z"/>
<path d="M6227 3043 c-15 -14 -6 -34 19 -43 28 -11 23 -35 -7 -27 -11 3 -19 1
-19 -5 0 -5 15 -8 32 -6 42 4 51 34 14 48 -31 11 -35 35 -6 27 11 -3 20 -1 20
4 0 10 -43 12 -53 2z"/>
<path d="M6360 2983 c0 -35 4 -63 10 -63 6 0 10 9 10 20 0 15 7 20 25 20 33 0
52 38 36 68 -9 16 -20 21 -46 20 l-35 -1 0 -64z m64 9 c-13 -20 -25 -20 -38 1
-7 10 -5 21 4 32 12 15 15 15 29 0 12 -12 13 -19 5 -33z"/>
<path d="M6470 3029 c-19 -34 2 -69 40 -69 16 0 30 4 30 9 0 5 -8 7 -18 4 -10
-2 -24 3 -31 11 -12 14 -9 16 18 16 28 0 32 3 29 23 -4 32 -52 36 -68 6z m50
-10 c0 -5 -7 -9 -15 -9 -15 0 -20 12 -9 23 8 8 24 -1 24 -14z"/>
<path d="M6664 3036 c-3 -8 -4 -27 -2 -43 2 -24 8 -28 36 -31 17 -2 32 1 32 6
0 5 -10 8 -21 8 -12 -1 -24 5 -26 12 -3 8 6 12 26 12 32 0 41 16 19 38 -16 16
-57 15 -64 -2z m54 -14 c2 -7 -6 -12 -17 -12 -21 0 -27 11 -14 24 9 9 26 2 31
-12z"/>
<path d="M6760 3004 c0 -24 5 -44 10 -44 6 0 10 16 10 35 0 24 5 35 15 35 8 0
15 4 15 9 0 5 -11 9 -25 9 -23 0 -25 -4 -25 -44z"/>
<path d="M6830 2996 c0 -34 -5 -56 -12 -59 -7 -2 -10 -8 -6 -12 4 -4 14 -5 23
-2 11 5 15 22 15 67 0 33 -4 60 -10 60 -5 0 -10 -24 -10 -54z"/>
<path d="M6883 3043 c5 -4 16 -8 24 -8 29 0 25 -23 -4 -27 -20 -2 -28 -9 -28
-23 0 -16 7 -20 38 -22 l38 -1 -3 41 c-3 40 -5 42 -38 45 -19 2 -31 0 -27 -5z
m47 -52 c0 -14 -18 -23 -30 -16 -6 4 -8 11 -5 16 8 12 35 12 35 0z"/>
<path d="M6980 3040 c0 -5 8 -9 18 -7 26 3 27 -17 0 -23 -14 -4 -23 -13 -23
-25 0 -16 7 -20 38 -22 34 -1 37 1 37 27 0 46 -10 60 -41 60 -16 0 -29 -4 -29
-10z m48 -52 c-7 -19 -38 -22 -38 -4 0 10 9 16 21 16 12 0 19 -5 17 -12z"/>
<path d="M7070 3004 c0 -24 5 -44 10 -44 6 0 10 13 10 29 0 29 21 57 33 44 4
-3 7 -21 7 -40 0 -18 5 -33 11 -33 6 0 9 17 7 43 -3 41 -4 42 -40 44 l-38 1 0
-44z"/>
<path d="M7280 3003 c0 -23 5 -43 10 -43 6 0 10 13 10 29 0 29 21 57 33 44 4
-3 7 -21 7 -40 0 -45 18 -42 22 5 2 25 8 37 18 37 10 0 16 -12 18 -37 4 -46
22 -51 22 -5 0 50 -9 56 -78 55 l-62 -1 0 -44z"/>
<path d="M7452 3038 c-29 -29 -7 -78 35 -78 13 0 23 4 23 8 0 5 -10 8 -21 8
-12 -1 -24 5 -26 12 -3 8 6 12 26 12 19 0 31 5 31 13 0 18 -21 37 -40 37 -9 0
-21 -5 -28 -12z m46 -16 c2 -7 -6 -12 -17 -12 -21 0 -27 11 -14 24 9 9 26 2
31 -12z"/>
<path d="M7540 3004 c0 -54 18 -59 22 -6 2 25 8 37 18 37 10 0 16 -12 18 -37
2 -21 8 -38 13 -38 6 0 9 19 7 43 -3 41 -4 42 -40 44 l-38 1 0 -44z"/>
<path d="M7647 3043 c-4 -4 -4 -22 -1 -40 4 -19 2 -39 -5 -47 -16 -19 10 -38
46 -34 20 2 29 9 31 26 3 18 -3 23 -30 29 -31 6 -31 7 -9 13 16 3 27 15 32 33
7 25 5 27 -25 27 -18 0 -36 -3 -39 -7z m43 -23 c0 -21 -15 -27 -25 -10 -7 12
2 30 16 30 5 0 9 -9 9 -20z m10 -69 c0 -6 -5 -13 -10 -16 -15 -9 -43 3 -35 15
8 13 45 13 45 1z"/>
<path d="M7740 3005 c0 -25 5 -45 10 -45 6 0 10 20 10 45 0 25 -4 45 -10 45
-5 0 -10 -20 -10 -45z"/>
<path d="M7790 3003 c0 -53 18 -57 22 -5 2 25 8 37 18 37 10 0 16 -12 18 -37
4 -46 22 -51 22 -5 0 45 -12 58 -48 55 -31 -2 -32 -4 -32 -45z"/>
<path d="M7895 3038 c-3 -7 -3 -26 -2 -43 2 -16 -1 -35 -6 -42 -19 -26 24 -44
67 -27 29 11 19 43 -16 52 l-33 8 26 7 c18 5 28 15 31 32 5 23 2 25 -29 25
-18 0 -36 -6 -38 -12z m43 -15 c-4 -22 -22 -20 -26 1 -2 10 3 16 13 16 10 0
15 -7 13 -17z m10 -75 c-3 -7 -13 -13 -23 -13 -10 0 -20 6 -22 13 -3 7 5 12
22 12 17 0 25 -5 23 -12z"/>
<path d="M7990 3041 c0 -6 10 -10 21 -8 12 1 24 -3 26 -10 2 -7 -8 -13 -24
-15 -20 -2 -28 -9 -28 -23 0 -16 7 -20 38 -22 l38 -1 -3 41 c-3 39 -5 42 -35
45 -19 2 -33 -1 -33 -7z m48 -53 c-3 -7 -11 -13 -18 -13 -7 0 -15 6 -17 13 -3
7 4 12 17 12 13 0 20 -5 18 -12z"/>
<path d="M8270 3005 c0 -25 5 -45 10 -45 6 0 10 20 10 45 0 25 -4 45 -10 45
-5 0 -10 -20 -10 -45z"/>
<path d="M8330 3042 c0 -5 7 -9 16 -8 9 0 19 -5 21 -11 3 -8 -5 -13 -20 -13
-26 0 -40 -19 -28 -39 4 -6 22 -10 40 -9 31 2 32 4 29 43 -3 35 -6 40 -30 43
-16 2 -28 -1 -28 -6z m38 -54 c-6 -18 -28 -21 -28 -4 0 9 7 16 16 16 9 0 14
-5 12 -12z"/>
<path d="M8420 2983 c0 -35 4 -63 10 -63 6 0 10 9 10 20 0 15 7 20 24 20 28 0
41 28 32 65 -5 20 -12 24 -41 23 l-35 -1 0 -64z m55 21 c0 -19 -5 -29 -15 -29
-16 0 -25 28 -16 51 10 25 31 10 31 -22z"/>
<path d="M2770 2970 c0 -5 5 -10 10 -10 6 0 10 5 10 10 0 6 -4 10 -10 10 -5 0
-10 -4 -10 -10z"/>
<path d="M7177 2960 c-3 -11 -1 -20 4 -20 5 0 9 2 9 4 0 2 3 11 6 20 3 9 2 16
-4 16 -5 0 -12 -9 -15 -20z"/>
<path d="M978 2874 c-11 -10 -10 -124 1 -124 5 0 11 10 15 23 l6 22 15 -22
c22 -32 41 -29 20 3 -16 24 -16 27 1 45 9 10 13 19 7 19 -5 0 -18 -10 -29 -21
l-19 -21 -5 42 c-3 23 -8 38 -12 34z"/>
<path d="M2100 2815 c0 -37 4 -65 10 -65 6 0 10 28 10 65 0 37 -4 65 -10 65
-6 0 -10 -28 -10 -65z"/>
<path d="M2190 2815 c0 -37 4 -65 10 -65 6 0 10 7 10 15 0 8 4 15 9 15 5 0 14
-7 21 -15 21 -25 32 -17 14 10 -16 24 -16 27 1 45 15 17 16 20 3 20 -9 0 -23
-10 -31 -22 -16 -22 -16 -22 -16 20 -1 23 -5 42 -11 42 -6 0 -10 -28 -10 -65z"/>
<path d="M2630 2815 c0 -37 4 -65 10 -65 6 0 10 10 11 23 l0 22 16 -22 c8 -13
22 -23 31 -23 13 0 13 2 -1 18 -20 22 -22 43 -5 60 18 18 -3 14 -24 -5 -17
-15 -18 -14 -18 20 0 21 -4 37 -10 37 -6 0 -10 -28 -10 -65z"/>
<path d="M2870 2815 c0 -37 4 -65 10 -65 6 0 10 7 10 15 0 8 5 15 10 15 6 0
13 -7 16 -15 4 -8 13 -15 20 -15 12 0 11 5 -2 25 -16 24 -16 27 1 45 16 18 16
20 2 20 -9 0 -23 -10 -31 -22 -16 -22 -16 -21 -16 20 0 23 -4 42 -10 42 -6 0
-10 -28 -10 -65z"/>
<path d="M3240 2815 c0 -37 4 -65 10 -65 6 0 10 13 10 29 0 29 21 57 33 44 4
-3 7 -21 7 -40 0 -18 5 -33 11 -33 6 0 9 17 7 43 -3 39 -5 42 -30 42 -23 -1
-28 4 -28 22 0 13 -4 23 -10 23 -6 0 -10 -28 -10 -65z"/>
<path d="M3760 2816 l0 -64 38 1 c36 2 37 3 37 42 0 37 -2 40 -27 40 -23 -1
-28 4 -28 22 0 13 -4 23 -10 23 -6 0 -10 -28 -10 -64z m58 -27 c-4 -28 -31
-32 -36 -6 -5 23 18 51 30 39 6 -6 8 -20 6 -33z"/>
<path d="M4040 2818 c0 -62 1 -64 26 -66 33 -3 54 14 54 42 0 27 -18 46 -42
46 -10 0 -18 6 -18 14 0 8 -4 18 -10 21 -6 4 -10 -18 -10 -57z m58 -32 c-2
-12 -10 -21 -18 -21 -16 0 -25 28 -16 52 9 23 38 -4 34 -31z"/>
<path d="M4295 2860 c-3 -11 -15 -20 -26 -20 -11 0 -24 -11 -31 -26 -16 -35 0
-59 41 -60 l31 -1 0 64 c0 65 -4 77 -15 43z m-1 -77 c-6 -9 -15 -18 -21 -20
-17 -6 -26 36 -12 53 11 13 14 13 28 -1 12 -11 13 -20 5 -32z"/>
<path d="M1240 2860 c0 -5 5 -10 10 -10 6 0 10 5 10 10 0 6 -4 10 -10 10 -5 0
-10 -4 -10 -10z"/>
<path d="M2050 2860 c0 -5 5 -10 10 -10 6 0 10 5 10 10 0 6 -4 10 -10 10 -5 0
-10 -4 -10 -10z"/>
<path d="M2145 2860 c4 -6 11 -8 16 -5 14 9 11 15 -7 15 -8 0 -12 -5 -9 -10z"/>
<path d="M2290 2859 c0 -5 5 -7 10 -4 6 3 10 8 10 11 0 2 -4 4 -10 4 -5 0 -10
-5 -10 -11z"/>
<path d="M2455 2860 c3 -5 8 -10 11 -10 2 0 4 5 4 10 0 6 -5 10 -11 10 -5 0
-7 -4 -4 -10z"/>
<path d="M2580 2860 c0 -5 5 -10 10 -10 6 0 10 5 10 10 0 6 -4 10 -10 10 -5 0
-10 -4 -10 -10z"/>
<path d="M3448 2850 c-2 -6 -2 -31 0 -55 4 -41 6 -45 31 -44 16 1 20 3 9 6
-13 3 -18 15 -18 39 0 19 5 34 11 34 6 0 4 7 -5 15 -17 18 -23 19 -28 5z"/>
<path d="M770 2774 c0 -36 4 -64 10 -64 6 0 10 11 10 24 0 19 4 22 25 18 19
-3 27 1 34 19 14 40 -1 64 -43 66 l-36 1 0 -64z m59 5 c-5 -11 -14 -19 -19
-19 -16 0 -22 40 -9 56 12 14 14 14 26 -1 8 -13 9 -23 2 -36z"/>
<path d="M878 2815 c-8 -19 -9 -31 -1 -43 11 -18 73 -30 73 -14 0 6 -8 8 -18
5 -10 -2 -24 3 -31 11 -12 14 -9 16 18 16 28 0 32 3 29 23 -5 35 -54 36 -70 2z
m50 -3 c2 -7 -3 -12 -12 -12 -9 0 -16 7 -16 16 0 17 22 14 28 -4z"/>
<path d="M1074 2826 c-3 -8 -4 -27 -2 -43 2 -24 8 -28 36 -31 17 -2 32 1 32 6
0 5 -10 8 -21 8 -12 -1 -24 5 -26 12 -3 8 6 12 26 12 34 0 36 2 21 31 -12 22
-58 26 -66 5z m46 -11 c0 -8 -7 -15 -15 -15 -16 0 -20 12 -8 23 11 12 23 8 23
-8z"/>
<path d="M1170 2793 c0 -24 5 -43 10 -43 6 0 10 16 10 35 0 24 5 35 15 35 8 0
15 4 15 9 0 5 -11 8 -25 7 -23 -1 -25 -5 -25 -43z"/>
<path d="M1240 2787 c0 -29 -6 -59 -12 -66 -11 -10 -9 -12 7 -9 17 3 20 12 23
66 2 38 -1 62 -8 62 -6 0 -10 -23 -10 -53z"/>
<path d="M1290 2831 c0 -6 10 -10 21 -8 12 1 24 -3 26 -10 2 -7 -8 -13 -24
-15 -20 -2 -28 -9 -28 -23 0 -16 7 -20 38 -22 l38 -1 -3 41 c-3 39 -5 42 -35
45 -19 2 -33 -1 -33 -7z m50 -50 c0 -14 -18 -23 -30 -16 -6 4 -8 11 -5 16 8
12 35 12 35 0z"/>
<path d="M1390 2830 c0 -5 8 -9 18 -7 26 3 27 -17 0 -23 -14 -4 -23 -13 -23
-25 0 -16 7 -20 38 -22 35 -1 37 0 37 31 0 18 -5 37 -12 44 -14 14 -58 16 -58
2z m44 -55 c-4 -8 -12 -15 -20 -15 -8 0 -14 7 -14 15 0 8 9 15 20 15 13 0 18
-5 14 -15z"/>
<path d="M1480 2794 c0 -24 5 -44 10 -44 6 0 10 13 10 29 0 29 21 57 33 44 4
-3 7 -21 7 -40 0 -18 5 -33 11 -33 6 0 9 17 7 43 -3 41 -4 42 -40 44 l-38 1 0
-44z"/>
<path d="M1630 2793 c0 -23 5 -43 10 -43 6 0 10 13 10 29 0 29 21 57 33 44 4
-3 7 -21 7 -40 0 -18 5 -33 10 -33 6 0 10 15 10 34 0 20 6 36 14 39 20 8 26
-2 26 -40 0 -18 5 -33 10 -33 12 0 13 59 2 77 -4 7 -32 11 -70 11 l-62 -1 0
-44z"/>
<path d="M1802 2828 c-29 -29 -7 -78 35 -78 13 0 23 4 23 8 0 5 -10 8 -21 8
-12 -1 -24 5 -26 12 -3 8 6 12 26 12 19 0 31 5 31 13 0 18 -21 37 -40 37 -9 0
-21 -5 -28 -12z m46 -16 c2 -7 -6 -12 -17 -12 -21 0 -27 11 -14 24 9 9 26 2
31 -12z"/>
<path d="M1890 2794 c0 -24 5 -44 10 -44 6 0 10 15 10 34 0 20 6 36 14 39 20
8 26 -2 26 -40 0 -44 18 -43 22 2 2 20 8 35 13 35 6 0 11 -15 13 -35 2 -19 8
-35 13 -35 6 0 9 19 7 43 l-3 42 -62 1 -63 2 0 -44z"/>
<path d="M2050 2795 c0 -25 5 -45 10 -45 6 0 10 20 10 45 0 25 -4 45 -10 45
-5 0 -10 -20 -10 -45z"/>
<path d="M2140 2795 c0 -25 5 -45 10 -45 6 0 10 20 10 45 0 25 -4 45 -10 45
-5 0 -10 -20 -10 -45z"/>
<path d="M2290 2795 c0 -25 5 -45 10 -45 6 0 10 20 10 45 0 25 -4 45 -10 45
-5 0 -10 -20 -10 -45z"/>
<path d="M2380 2794 c0 -24 5 -44 10 -44 6 0 10 16 10 35 0 24 5 35 15 35 8 0
15 4 15 9 0 5 -11 9 -25 9 -23 0 -25 -4 -25 -44z"/>
<path d="M2450 2795 c0 -25 5 -45 10 -45 6 0 10 20 10 45 0 25 -4 45 -10 45
-5 0 -10 -20 -10 -45z"/>
<path d="M2494 2828 c-4 -6 4 -20 19 -33 34 -26 34 -39 2 -33 -14 3 -25 1 -25
-4 0 -5 15 -8 32 -6 42 4 50 33 14 49 -26 12 -26 35 0 25 7 -3 16 -1 19 4 4 6
-7 10 -24 10 -16 0 -33 -5 -37 -12z"/>
<path d="M2580 2795 c0 -25 5 -45 10 -45 6 0 10 20 10 45 0 25 -4 45 -10 45
-5 0 -10 -20 -10 -45z"/>
<path d="M2732 2828 c-30 -30 -4 -82 40 -76 20 3 23 9 23 43 0 35 -3 40 -25
43 -14 2 -31 -3 -38 -10z m46 -39 c-1 -13 -10 -24 -18 -24 -19 0 -26 45 -8 56
18 11 30 -4 26 -32z"/>
<path d="M2972 2828 c-15 -15 -16 -50 0 -66 14 -14 68 -16 68 -3 0 4 -11 6
-24 4 -15 -3 -25 1 -29 11 -5 12 0 16 24 16 26 0 30 3 27 23 -3 25 -45 36 -66
15z m46 -16 c2 -7 -6 -12 -17 -12 -21 0 -27 11 -14 24 9 9 26 2 31 -12z"/>
<path d="M3063 2823 c-4 -11 1 -22 15 -31 28 -18 29 -36 2 -29 -11 3 -20 1
-20 -4 0 -5 13 -9 29 -9 39 0 47 25 16 46 -30 20 -33 38 -5 29 11 -4 20 -2 20
4 0 18 -50 13 -57 -6z"/>
<path d="M3152 2828 c-7 -7 -12 -21 -12 -33 0 -12 5 -26 12 -33 13 -13 68 -17
68 -4 0 4 -12 8 -27 7 -14 0 -28 6 -30 13 -3 8 6 12 26 12 19 0 31 5 31 13 0
18 -21 37 -40 37 -9 0 -21 -5 -28 -12z m46 -16 c2 -7 -6 -12 -17 -12 -21 0
-27 11 -14 24 9 9 26 2 31 -12z"/>
<path d="M3360 2832 c0 -5 7 -9 16 -8 30 2 27 -22 -3 -26 -20 -2 -28 -9 -28
-23 0 -16 8 -21 38 -23 l38 -3 -3 43 c-3 39 -6 43 -30 46 -16 2 -28 -1 -28 -6z
m40 -51 c0 -14 -18 -23 -30 -16 -6 4 -8 11 -5 16 8 12 35 12 35 0z"/>
<path d="M3520 2830 c0 -7 8 -9 20 -5 14 4 20 2 20 -9 0 -8 -10 -16 -22 -18
-15 -2 -24 -11 -26 -26 -3 -20 0 -22 33 -20 36 2 36 3 33 43 -3 35 -6 40 -30
43 -16 2 -28 -2 -28 -8z m38 -52 c-6 -18 -28 -21 -28 -4 0 9 7 16 16 16 9 0
14 -5 12 -12z"/>
<path d="M3610 2794 c0 -24 5 -44 10 -44 6 0 10 15 10 34 0 20 6 36 14 39 20
8 26 -2 26 -40 0 -18 5 -33 11 -33 6 0 9 17 7 43 -3 41 -4 42 -40 44 l-38 1 0
-44z"/>
<path d="M3872 2828 c-15 -15 -16 -50 0 -66 13 -13 68 -17 68 -4 0 4 -12 8
-27 7 -14 0 -28 6 -30 13 -3 8 6 12 27 12 27 0 31 3 28 23 -3 25 -45 36 -66
15z m46 -16 c2 -7 -6 -12 -17 -12 -21 0 -27 11 -14 24 9 9 26 2 31 -12z"/>
<path d="M3960 2793 c0 -23 5 -43 10 -43 6 0 10 14 10 31 0 22 5 32 20 36 30
8 24 22 -10 21 -29 -1 -30 -3 -30 -45z"/>
<path d="M4144 2826 c-3 -8 -4 -27 -2 -43 2 -24 8 -28 36 -31 17 -2 32 1 32 6
0 5 -10 8 -21 8 -12 -1 -24 5 -26 12 -3 8 6 12 26 12 34 0 36 2 21 31 -12 22
-58 26 -66 5z m46 -11 c0 -8 -7 -15 -15 -15 -16 0 -20 12 -8 23 11 12 23 8 23
-8z"/>
<path d="M4350 2832 c0 -6 9 -8 20 -5 14 4 20 0 20 -10 0 -9 -10 -17 -22 -19
-15 -2 -24 -11 -26 -26 -3 -20 0 -22 33 -20 36 2 36 3 33 43 -3 35 -6 40 -30
43 -16 2 -28 -1 -28 -6z m38 -54 c-6 -18 -28 -21 -28 -4 0 9 7 16 16 16 9 0
14 -5 12 -12z"/>
<path d="M4440 2760 c0 -5 5 -10 10 -10 6 0 10 5 10 10 0 6 -4 10 -10 10 -5 0
-10 -4 -10 -10z"/>
<path d="M0 1610 c0 -20 7 -20 5513 -20 4275 0 5516 3 5525 12 7 7 12 16 12
20 0 4 -2486 8 -5525 8 -5518 0 -5525 0 -5525 -20z"/>
</g>
</svg>
